<svg width="258" height="345" viewBox="0 0 258 345" fill="none" xmlns="http://www.w3.org/2000/svg">
<g opacity="0.1">
<path opacity="0.0526316" d="M72.5734 113.885C71.4526 101.615 79.1159 74.0949 118.735 62.1801C168.26 47.2865 214.718 69.9303 264.732 62.6839C301.645 57.3354 386.323 27.8696 404.161 -21.1695" stroke="#019F67" stroke-width="1.5" stroke-linecap="round"/>
<path opacity="0.105263" d="M81.8772 134.516C79.3112 122.347 83.6203 94.1164 121.385 78.5454C168.59 59.0816 217.223 77.4432 265.821 65.5824C301.69 56.8283 381.928 19.5476 393.742 -31.1436" stroke="#019F67" stroke-width="1.5" stroke-linecap="round"/>
<path opacity="0.157895" d="M92.8996 154.256C88.9164 142.322 89.8241 113.691 125.32 94.6341C169.689 70.8133 219.964 84.6914 266.614 68.3464C301.045 56.2825 375.964 11.5954 381.626 -40.1926" stroke="#019F67" stroke-width="1.5" stroke-linecap="round"/>
<path opacity="0.210526" d="M105.519 172.95C100.162 161.382 97.6583 132.663 130.496 110.329C171.544 82.4124 222.91 91.655 267.1 71.0047C299.716 55.7632 368.496 4.15927 367.942 -48.158" stroke="#019F67" stroke-width="1.5" stroke-linecap="round"/>
<path opacity="0.263158" d="M119.589 190.448C112.917 179.373 107.03 150.88 136.851 125.515C174.126 93.8078 226.02 98.3137 267.267 73.5844C297.711 55.3323 359.597 -2.623 352.835 -54.8964" stroke="#019F67" stroke-width="1.5" stroke-linecap="round"/>
<path opacity="0.315789" d="M134.955 206.617C127.042 196.155 117.835 168.202 144.312 140.082C177.407 104.933 229.261 104.652 267.112 76.1149C295.05 55.0522 349.365 -8.61954 336.468 -60.2764" stroke="#019F67" stroke-width="1.5" stroke-linecap="round"/>
<path opacity="0.368421" d="M151.443 221.336C142.374 211.602 129.949 184.495 152.791 153.929C181.344 115.722 232.589 110.658 266.631 78.6255C291.756 54.9828 337.905 -13.7078 319.014 -64.1821" stroke="#019F67" stroke-width="1.5" stroke-linecap="round"/>
<path opacity="0.421053" d="M168.868 234.502C158.744 225.603 143.236 199.638 162.194 166.961C185.892 126.115 235.967 116.324 265.825 81.1467C287.863 55.1833 325.34 -17.7736 300.663 -66.5123" stroke="#019F67" stroke-width="1.5" stroke-linecap="round"/>
<path opacity="0.473684" d="M187.037 246.028C175.969 238.063 157.548 213.524 172.414 179.094C190.996 136.056 239.353 121.645 264.701 83.7088C283.41 55.709 311.804 -20.7148 281.611 -67.184" stroke="#019F67" stroke-width="1.5" stroke-linecap="round"/>
<path opacity="0.526316" d="M205.745 255.847C193.853 248.901 172.722 226.059 183.333 190.252C196.596 145.495 242.704 126.621 263.265 86.3414C278.44 56.612 297.441 -22.4414 262.062 -66.1319" stroke="#019F67" stroke-width="1.5" stroke-linecap="round"/>
<path opacity="0.578947" d="M224.785 263.908C212.2 258.058 188.589 237.161 194.829 200.372C202.628 154.384 245.982 131.255 261.53 89.0733C273.005 57.94 282.404 -22.8769 242.227 -63.3101" stroke="#019F67" stroke-width="1.5" stroke-linecap="round"/>
<path opacity="0.631579" d="M243.943 270.178C230.802 265.488 204.971 246.767 206.771 209.396C209.021 162.683 249.146 135.552 259.511 91.93C267.16 59.7339 266.854 -21.961 222.32 -58.6938" stroke="#019F67" stroke-width="1.5" stroke-linecap="round"/>
<path opacity="0.684211" d="M263.005 274.648C249.453 271.17 221.684 254.828 219.025 217.287C215.7 170.36 252.158 139.523 257.225 94.9396C260.965 62.0335 250.957 -19.6444 202.553 -52.2744" stroke="#019F67" stroke-width="1.5" stroke-linecap="round"/>
<path opacity="0.736842" d="M281.759 277.328C267.944 275.099 238.542 261.316 231.453 224.015C222.59 177.388 254.98 143.185 254.695 98.1274C254.484 64.8718 234.884 -15.8942 183.141 -44.0639" stroke="#019F67" stroke-width="1.5" stroke-linecap="round"/>
<path opacity="0.789474" d="M299.995 278.241C286.069 277.287 255.356 266.214 243.914 229.562C229.611 183.746 257.578 146.55 251.943 101.513C247.785 68.272 218.808 -10.6972 164.292 -34.098" stroke="#019F67" stroke-width="1.5" stroke-linecap="round"/>
<path opacity="0.842105" d="M317.511 277.441C303.626 277.771 271.938 269.53 256.269 233.928C236.682 189.425 259.92 149.645 248.998 105.121C240.936 72.2593 202.9 -4.04793 146.209 -22.4234" stroke="#019F67" stroke-width="1.5" stroke-linecap="round"/>
<path opacity="0.894737" d="M334.108 274.991C320.416 276.601 288.101 271.282 268.376 237.12C243.72 194.418 261.975 152.488 245.884 108.966C234.008 76.8436 187.329 4.0344 129.084 -9.11439" stroke="#019F67" stroke-width="1.5" stroke-linecap="round"/>
<path opacity="0.947368" d="M349.603 270.974C336.254 273.848 303.666 271.508 280.101 239.162C250.646 198.728 263.717 155.108 242.635 113.064C227.075 82.0329 172.264 13.5195 113.103 5.74138" stroke="#019F67" stroke-width="1.5" stroke-linecap="round"/>
<path d="M363.819 265.495C350.96 269.6 318.456 270.267 291.31 240.089C257.378 202.367 265.122 157.535 239.279 117.43C220.205 87.8298 157.863 24.3628 98.4355 22.0406" stroke="#019F67" stroke-width="1.5" stroke-linecap="round"/>
</g>
</svg>
