<svg width="24" height="24" viewBox="0 0 24 24" fill="none" xmlns="http://www.w3.org/2000/svg">
<path fill-rule="evenodd" clip-rule="evenodd" d="M4.52169 3C3.6816 3 3 3.69306 3 4.54622V5.45626C3 6.08824 3.24032 6.69598 3.67021 7.15311L8.38135 12.1625L8.38342 12.1594C9.29291 13.0905 9.80463 14.3492 9.80463 15.6616V20.1064C9.80463 20.4035 10.1154 20.593 10.3733 20.453L13.0562 18.991C13.4613 18.7698 13.714 18.3401 13.714 17.8735V15.65C13.714 14.3449 14.2185 13.0915 15.1197 12.1625L19.8308 7.15311C20.2597 6.69598 20.5 6.08824 20.5 5.45626V4.54622C20.5 3.69306 19.8194 3 18.9793 3H4.52169Z" stroke="white" stroke-width="1.5" stroke-linecap="round" stroke-linejoin="round"/>
</svg>
