<svg width="25" height="24" viewBox="0 0 25 24" fill="none" xmlns="http://www.w3.org/2000/svg">
<path d="M14.875 5.60992L3.07634 6.85001C2.35232 6.9261 1.82478 7.55293 1.89805 8.25007L2.42873 13.2992C2.50201 13.9963 3.14834 14.4998 3.87237 14.4237L15.671 13.1836C16.395 13.1075 16.9226 12.4807 16.8493 11.7835L16.3186 6.73441C16.2453 6.03727 15.599 5.53382 14.875 5.60992Z" stroke="#6B7280" stroke-linecap="round" stroke-linejoin="round"/>
<path d="M15.6709 13.1836L3.87224 14.4237C3.14822 14.4998 2.62068 15.1267 2.69395 15.8238L2.95929 18.3484C3.03256 19.0455 3.6789 19.5489 4.40292 19.4728L16.2016 18.2328C16.9256 18.1567 17.4531 17.5298 17.3799 16.8327L17.1145 14.3081C17.0412 13.611 16.3949 13.1076 15.6709 13.1836Z" stroke="#6B7280" stroke-linecap="round" stroke-linejoin="round"/>
<path d="M14.8749 5.61006L3.0763 6.85015C2.72881 6.88572 2.38192 6.78742 2.11142 6.57672C1.84092 6.36601 1.6688 6.06004 1.63267 5.72566C1.59849 5.39107 1.70323 5.05599 1.92401 4.79366C2.1448 4.53132 2.46367 4.36304 2.81096 4.32559L14.6096 3.0855C14.9571 3.04993 15.304 3.14823 15.5745 3.35893C15.845 3.56964 16.0171 3.87561 16.0532 4.20999C16.0874 4.54458 15.9827 4.87966 15.7619 5.14199C15.5411 5.40433 15.2222 5.57261 14.8749 5.61006ZM5.71397 19.3351L5.80518 20.203C5.81618 20.3076 5.78356 20.4124 5.71451 20.4945C5.64545 20.5765 5.54562 20.6291 5.43697 20.6405L4.28988 20.761C4.18122 20.7725 4.07265 20.7419 3.98805 20.6759C3.90344 20.61 3.84974 20.5143 3.83874 20.4096L3.74753 19.5418L5.71397 19.3351ZM16.8571 18.1639L16.9483 19.0318C16.9593 19.1364 16.9267 19.2412 16.8577 19.3233C16.7886 19.4053 16.6888 19.4579 16.5801 19.4693L15.433 19.5898C15.3244 19.6013 15.2158 19.5707 15.1312 19.5048C15.0466 19.4389 14.9929 19.3431 14.9819 19.2384L14.8907 18.3706L16.8571 18.1639Z" stroke="#6B7280" stroke-linecap="round" stroke-linejoin="round"/>
<path d="M14.6916 16.4771C15.0536 16.439 15.3174 16.1256 15.2807 15.777C15.2441 15.4285 14.9209 15.1767 14.5589 15.2148C14.1969 15.2528 13.9331 15.5663 13.9698 15.9148C14.0064 16.2634 14.3296 16.5151 14.6916 16.4771Z" fill="#6B7280" stroke="#6B7280" stroke-linejoin="round"/>
<path d="M5.51496 17.4419C5.87697 17.4039 6.14074 17.0905 6.1041 16.7419C6.06747 16.3933 5.7443 16.1416 5.38229 16.1796C5.02028 16.2177 4.75651 16.5311 4.79314 16.8797C4.82978 17.2282 5.15295 17.48 5.51496 17.4419Z" fill="#6B7280" stroke="#6B7280" stroke-linejoin="round"/>
<path d="M8.97565 6.23003L9.77167 13.8037M1.63269 5.72559L2.82673 17.0861M16.0533 4.20992L17.2473 15.5704" stroke="#6B7280" stroke-linecap="round" stroke-linejoin="round"/>
<path d="M19.6186 4.20119L19.7998 4.45906L20.0752 4.30585L22.5973 2.90273L21.1941 5.42484L21.0114 5.75329L21.352 5.91218L22.6721 6.528L21.352 7.14382L20.9517 7.33057L21.2251 7.67758L22.5017 9.29831L20.7301 8.70776L18.367 4.92685L18.7048 2.90036L19.6186 4.20119Z" stroke="#6B7280" stroke-width="0.7"/>
</svg>
