<svg width="222" height="254" viewBox="0 0 222 254" fill="none" xmlns="http://www.w3.org/2000/svg">
<g clip-path="url(#clip0_96_2187)">
<mask id="mask0_96_2187" style="mask-type:luminance" maskUnits="userSpaceOnUse" x="0" y="0" width="222" height="254">
<path d="M222 0H0V254H222V0Z" fill="white"/>
</mask>
<g mask="url(#mask0_96_2187)">
<path fill-rule="evenodd" clip-rule="evenodd" d="M119.03 174.804C118.127 174.463 117.299 173.969 116.588 173.347C112.518 170.296 108.643 167.025 104.982 163.549C99.3805 158.439 94.1817 152.956 89.4261 147.141C87.2362 144.72 85.4147 142.026 84.0137 139.136C83.1834 137.33 82.8053 135.37 82.9085 133.406C83.0116 131.442 83.5932 129.526 84.6087 127.806C88.0475 122.014 91.8766 116.433 96.0728 111.098C101.504 104.133 107.455 97.5393 113.882 91.3651C120.638 84.8709 127.844 78.8013 135.451 73.1957C145.021 66.1447 155.089 59.7093 165.585 53.9334C172.483 50.1171 179.349 46.253 186.231 42.4138C186.582 42.2181 186.94 42.037 187.475 41.756C186.995 43.6672 186.587 45.4306 186.105 47.169C184.944 50.8052 185.267 54.7165 187.013 58.141C188.174 60.0475 189.598 61.8018 191.249 63.3584C195.942 68.3885 200.597 73.4497 204.99 78.7046C205.155 78.9024 205.292 79.121 205.51 79.4187C204.655 79.6706 203.849 79.8851 203.068 80.1453C198.604 81.7109 194.347 83.7543 190.383 86.2351C183.563 90.4445 177.028 95.0461 170.816 100.014C169.833 100.885 168.671 101.56 167.402 101.998C166.133 102.436 164.782 102.627 163.431 102.561C162.08 102.494 160.758 102.171 159.544 101.612C158.33 101.052 157.251 100.266 156.37 99.3036C152.596 95.681 148.871 91.9959 145.115 88.3483C144.74 87.9839 144.671 87.7695 145.115 87.3656C147.97 84.8527 150.962 82.4813 153.995 80.1495C154.53 79.7331 154.814 79.9413 155.185 80.3077C156.949 82.0358 158.725 83.7555 160.513 85.4668C160.975 86.0434 161.563 86.5205 162.238 86.8659C162.913 87.2112 163.659 87.4169 164.426 87.469C165.193 87.5211 165.963 87.4184 166.685 87.1678C167.406 86.9173 168.061 86.5247 168.607 86.0165C169.202 85.496 169.863 85.0359 170.503 84.5591C173.925 81.7472 177.724 79.3674 181.805 77.4804C182.617 77.1452 183.472 76.8933 184.358 76.5873C183.012 74.8509 181.592 73.1832 180.106 71.5635C178.357 69.6585 176.61 67.7514 174.823 65.8776C174.561 65.5238 174.223 65.2246 173.832 64.999C173.441 64.7733 173.004 64.6261 172.549 64.5664C172.094 64.5068 171.631 64.536 171.188 64.6524C170.746 64.7688 170.334 64.9697 169.979 65.2426C164.403 68.4834 159.043 72.0412 153.93 75.896C150.911 78.0946 147.843 80.2349 144.957 82.5812C139.695 86.8785 134.678 91.4333 129.928 96.2264C123.945 102.237 118.193 108.429 112.812 114.9C108.372 120.24 104.238 125.78 100.331 131.46C99.6404 132.375 99.2988 133.483 99.3608 134.603C99.4229 135.723 99.8849 136.791 100.673 137.635C103.658 141.267 106.875 144.727 110.307 147.995C111.475 149.248 112.769 150.393 114.17 151.413C115.552 148.041 117.449 144.875 119.802 142.015C124.18 135.905 128.682 129.867 133.042 123.748C133.887 122.736 134.502 121.572 134.85 120.33C135.199 119.087 135.273 117.79 135.069 116.519C134.463 114.725 133.359 113.114 131.87 111.852C130.41 110.259 128.915 108.693 127.43 107.128C127.305 107.04 127.203 106.927 127.13 106.798C127.057 106.668 127.016 106.525 127.009 106.379C127.002 106.233 127.03 106.087 127.091 105.952C127.151 105.818 127.243 105.697 127.359 105.599C130.296 102.138 133.355 98.7706 136.539 95.4977C136.81 95.2188 137.012 94.8565 137.489 95.3395C141.876 99.4683 145.898 103.924 149.515 108.664C150.656 110.161 151.453 111.865 151.855 113.666C152.256 115.468 152.253 117.328 151.846 119.128C151.353 120.808 150.586 122.406 149.57 123.865C144.686 131.751 139.436 139.45 134.397 147.255C129.513 154.817 124.433 162.279 120.382 170.261C119.526 171.645 119.068 173.213 119.05 174.812" fill="#05A451"/>
<path fill-rule="evenodd" clip-rule="evenodd" d="M191.042 16.8473C189.405 17.5607 187.769 18.2741 186.132 18.9876C176.364 23.2598 166.773 27.8088 157.38 32.7285C149.637 36.78 141.936 40.8982 134.388 45.2474C127.947 48.9589 121.608 52.8147 115.371 56.8148C105.99 62.8053 96.841 69.0769 87.9255 75.6295C78.9634 82.2294 70.2321 89.0749 61.8827 96.3222C60.3109 97.688 58.6992 99.0142 57.1363 100.388C55.9341 101.497 54.3646 102.188 52.6871 102.347C51.0096 102.506 49.3244 102.123 47.91 101.263C44.8413 99.5789 42.1511 97.3515 39.989 94.7045C33.773 87.8715 27.6303 80.9989 21.4432 74.1534C19.6424 72.0768 17.6924 70.118 15.6068 68.2906C15.1495 67.9075 15.0074 67.6473 15.6068 67.2205C22.2002 62.4569 28.5339 57.3957 35.4447 52.9986C42.9641 47.9495 51.0142 43.6348 59.4696 40.1216C62.8401 38.7218 66.4265 37.8336 70.0945 37.49C72.0862 37.3216 74.0931 37.5686 75.9711 38.2132C77.8491 38.8579 79.5518 39.8843 80.9569 41.2188C84.6444 44.5312 88.0787 48.0664 91.6129 51.51C92.0392 51.9264 92.1457 52.1908 91.5175 52.5822C88.2163 54.6392 84.9174 56.7066 81.6851 58.8531C80.8903 59.3798 80.5751 59.1508 80.0734 58.6074C78.5006 56.849 76.8234 55.1752 75.0495 53.594C73.8054 52.4389 72.2047 51.6812 70.4749 51.4285C68.7451 51.1758 66.9745 51.4411 65.4147 52.1866C61.4037 53.7693 57.5639 55.7096 53.9484 57.9807C48.2425 61.5518 42.8298 65.5186 37.7557 69.8479C37.2651 70.2643 37.143 70.4725 37.627 71.0159C41.0702 74.9071 44.4601 78.8379 47.8634 82.7624C48.21 83.2804 48.68 83.7161 49.2365 84.035C49.7929 84.354 50.4206 84.5476 51.0703 84.6007C51.72 84.6537 52.374 84.5648 52.9808 84.3408C53.5877 84.1169 54.1309 83.764 54.5678 83.3099C58.102 80.6034 61.5142 77.7469 65.0506 75.0341C75.1183 67.3163 85.7166 60.2355 96.5036 53.3817C102.333 49.6799 108.105 45.9032 114.019 42.3139C121.856 37.5566 129.737 32.8659 138.055 28.8248C140.275 27.7485 140.466 26.872 139.01 25.0169C136.821 22.2271 134.617 19.4477 132.468 16.6308C132.001 16.0187 131.684 15.9874 131.025 16.3955C124.482 20.4304 117.911 24.4236 111.366 28.4543C110.05 29.2581 108.778 30.1253 107.557 31.0526C107.056 31.3702 106.638 31.7887 106.332 32.2774C106.026 32.7661 105.84 33.3128 105.788 33.8774C105.737 34.4421 105.82 35.0105 106.032 35.5411C106.244 36.0717 106.58 36.5512 107.015 36.9445C108.05 38.0834 109.122 39.193 110.214 40.2757C110.658 40.7275 110.57 40.944 110.037 41.2584C106.913 43.103 103.821 44.9768 100.713 46.8443C100.413 47.0233 100.164 47.219 99.8402 46.8443C96.8166 43.4236 93.2113 40.4131 91.0668 36.3741C90.2355 34.9966 89.7014 33.4791 89.4951 31.9082C89.4482 30.6184 89.7573 29.339 90.3924 28.1941C91.0276 27.0491 91.9672 26.0774 93.1203 25.3729C99.2125 21.0229 105.574 17.0144 112.17 13.3683C118.288 9.77901 124.34 6.10018 130.21 2.17983C131.197 1.50609 132.127 0.762008 132.992 -0.0457905C133.527 -0.537135 133.76 -0.512151 134.201 0.04998C137.156 3.80793 140.153 7.54506 143.135 11.2801C145.102 13.7472 146.995 16.2664 149.051 18.669C150.092 19.9704 151.536 20.9391 153.185 21.4432C154.835 21.9473 156.61 21.9622 158.268 21.4859C163.911 20.1581 169.622 19.0964 175.378 18.3047C180.559 17.5989 185.776 17.1804 191.042 16.8473Z" fill="#05A451"/>
<path fill-rule="evenodd" clip-rule="evenodd" d="M81.0944 145.888C78.1157 147.181 75.032 148.251 71.8725 149.085C67.401 150.239 62.6949 150.338 58.1729 149.373C55.4262 148.9 52.8742 147.719 50.8025 145.963C49.6764 144.907 48.8161 143.628 48.2845 142.22C47.7529 140.813 47.5634 139.311 47.73 137.826C48.1251 133.785 49.4668 129.875 51.6594 126.375C55.3727 120.064 59.8594 114.182 65.0282 108.847C75.9552 97.3791 87.9132 86.813 100.77 77.266C113.567 67.5338 126.949 58.4971 140.848 50.2004C152.8 43.0655 165.137 36.5073 177.56 30.0907C183.585 26.9781 189.677 23.9738 195.764 20.9467C197.454 20.1139 199.196 19.3519 200.917 18.5607C201.092 18.4795 201.261 18.3255 201.538 18.492C197.377 21.6401 194.1 25.6949 191.992 30.303C191.778 30.6676 191.437 30.9526 191.027 31.1108C177.025 38.075 163.527 45.8054 150.128 53.6752C144.637 56.9002 139.378 60.452 134.044 63.8935C125.585 69.3503 117.462 75.2048 109.528 81.28C104.828 84.8797 100.297 88.646 95.8463 92.4997C90.0524 97.4733 84.5513 102.739 79.3672 108.273C73.5387 114.207 68.6044 120.861 64.7019 128.051C63.1369 130.937 62.1583 134.071 61.8159 137.293C61.6765 138.773 61.8415 140.265 62.3021 141.686C62.8254 143.308 63.8878 144.731 65.3343 145.748C66.7808 146.764 68.5357 147.32 70.3429 147.335C73.5845 147.491 76.8274 147.051 79.8889 146.04C80.2575 145.841 80.6944 145.787 81.1055 145.888" fill="#19359A"/>
<path fill-rule="evenodd" clip-rule="evenodd" d="M215.453 240.061C214.667 242.67 213.202 245.033 212.512 247.64C212.334 248.31 211.779 248.056 211.451 248.056C210.589 248.039 209.675 248.377 208.882 247.848C208.762 247.771 208.853 247.431 208.844 247.209C208.716 244.121 208.622 241.034 208.432 237.948C208.387 237.207 208.605 236.961 209.373 237.063C209.51 237.083 209.649 237.083 209.786 237.063C210.631 236.928 210.878 237.207 210.856 238.015C210.789 240.596 210.831 243.18 210.831 245.589C211.341 244.106 211.941 242.652 212.63 241.233C213.207 239.997 213.779 238.76 214.295 237.503C214.636 236.67 215.351 237.213 215.875 237.076C216.399 236.938 216.439 237.328 216.541 237.679C217.258 240.459 218.282 243.168 218.91 245.991C219.263 243.365 219.671 240.746 219.938 238.115C220.024 237.251 220.308 237.013 221.223 237.051C222.81 237.115 222.777 237.061 222.52 238.566C222.007 241.481 221.507 244.417 221.054 247.348C220.972 247.879 220.875 248.141 220.213 248.098C219.356 248.039 218.324 248.335 217.673 247.994C216.983 247.629 217.269 246.563 217.052 245.818C216.389 243.934 215.859 242.011 215.464 240.061" fill="#19359A"/>
<path fill-rule="evenodd" clip-rule="evenodd" d="M87.9321 246.328C87.8776 246.463 87.8367 246.602 87.81 246.744C87.7434 247.893 87.6346 247.993 86.3626 247.993C85.8837 248.02 85.4032 247.989 84.9329 247.9C83.6985 247.6 82.6662 247.14 82.3754 245.872C82.1764 245.212 82.1846 244.513 82.3988 243.857C82.613 243.202 83.0242 242.618 83.5831 242.176C84.8079 241.329 86.2798 240.854 87.8011 240.815C88.416 240.744 89.0288 240.64 89.646 240.607C90.3453 240.571 90.343 240.274 90.1144 239.801C89.9703 239.489 89.7255 239.227 89.4145 239.052C89.1035 238.877 88.7419 238.799 88.3805 238.827C87.2705 238.827 86.1605 238.827 85.0661 238.827C84.65 238.76 84.2638 238.58 83.9547 238.311C83.6456 238.041 83.427 237.693 83.3256 237.309C83.3256 237.007 83.5609 237.048 83.7519 237.063C86.1006 237.242 88.5248 236.63 90.7915 237.634C90.918 237.69 91.0734 237.761 91.1467 237.623C91.7749 236.447 92.8916 237.502 93.7929 237.069C92.1301 238.991 92.8117 241.179 92.5985 243.228C92.4565 244.577 92.3766 245.934 92.3366 247.286C92.3233 247.871 92.1257 248.025 91.4996 248.021C89.768 248.021 89.7858 248.041 89.9745 246.499C90.1188 245.308 90.1965 244.111 90.3386 242.92C90.3985 242.453 90.3252 242.283 89.7636 242.378C88.6114 242.572 87.4482 242.701 86.296 242.889C85.9378 242.927 85.5979 243.058 85.3136 243.265C85.0293 243.473 84.8116 243.75 84.6842 244.067C84.517 244.361 84.4477 244.696 84.4852 245.027C84.5228 245.358 84.6656 245.672 84.8951 245.926C85.1501 246.162 85.4654 246.331 85.8107 246.419C86.156 246.507 86.5196 246.51 86.8665 246.428C87.208 246.322 87.5701 246.286 87.9276 246.324" fill="#19359A"/>
<path fill-rule="evenodd" clip-rule="evenodd" d="M128.143 237.103C130.25 237.023 132.36 237.066 134.461 237.232C135.258 237.352 135.991 237.715 136.545 238.265C137.1 238.816 137.445 239.522 137.527 240.276C137.669 241.624 137.649 242.983 137.467 244.327C137.434 245.304 137.301 246.276 137.287 247.242C137.287 247.842 137.085 248.048 136.399 248.037C134.714 248.012 134.732 248.05 134.923 246.467C135.067 245.278 135.145 244.081 135.274 242.89C135.32 242.474 135.205 242.326 134.717 242.403C133.493 242.593 132.261 242.728 131.038 242.911C130.564 243.031 130.149 243.299 129.859 243.671C129.57 244.043 129.425 244.496 129.449 244.956C129.473 245.812 130.039 246.284 131.153 246.372C131.359 246.357 131.565 246.357 131.771 246.372C132.148 246.463 132.809 245.882 132.881 246.642C132.932 247.256 132.958 248.035 131.831 247.962C131.453 247.937 131.071 247.989 130.694 247.977C130.008 248.042 129.318 247.901 128.723 247.574C128.128 247.247 127.66 246.751 127.386 246.157C127.136 245.447 127.119 244.683 127.337 243.964C127.556 243.245 128 242.604 128.612 242.124C129.867 241.322 131.338 240.868 132.856 240.817C133.399 240.728 133.947 240.667 134.497 240.634C135.469 240.613 135.28 240.149 134.978 239.653C134.828 239.398 134.605 239.188 134.334 239.047C134.063 238.905 133.754 238.838 133.444 238.854C132.443 238.854 131.446 238.781 130.445 238.87C130.241 238.921 130.029 238.933 129.82 238.904C129.611 238.875 129.411 238.807 129.231 238.703C129.052 238.6 128.896 238.463 128.775 238.301C128.653 238.139 128.568 237.956 128.525 237.763C128.42 237.53 128.296 237.305 128.154 237.09" fill="#19359A"/>
<path fill-rule="evenodd" clip-rule="evenodd" d="M3.15252 241.781C2.48652 242.614 2.33778 243.684 0.959159 243.447C0.723839 243.409 0.577319 243.526 0.559559 243.765C0.504059 244.456 0.437459 245.148 0.379739 245.847C0.361979 246.055 0.448559 246.17 0.701639 246.238C1.77557 246.579 2.9488 246.513 3.97137 246.054C4.99395 245.595 5.78506 244.78 6.17616 243.782C6.46787 243.156 6.58778 242.471 6.52496 241.79C6.46214 241.109 6.21859 240.454 5.81652 239.884C5.57118 239.546 5.24302 239.267 4.85945 239.072C4.47588 238.877 4.04805 238.77 3.6117 238.762C3.17535 238.753 2.74315 238.843 2.35121 239.023C1.95927 239.203 1.61898 239.468 1.35876 239.797C1.1625 240.142 0.862076 240.424 0.49518 240.609C0.128283 240.795 -0.288753 240.874 -0.703621 240.838C-1.81362 240.73 -1.85358 240.778 -1.32522 239.882C-0.892003 239.125 -0.271262 238.475 0.484877 237.989C1.24102 237.503 2.11048 237.194 3.02025 237.089C3.93003 236.983 4.85355 237.084 5.71328 237.382C6.57301 237.681 7.34384 238.168 7.96104 238.804C8.77563 240.054 9.08027 241.539 8.81872 242.984C8.55717 244.429 7.7471 245.737 6.53802 246.665C5.58725 247.42 4.39701 247.86 3.15252 247.915C1.63848 247.967 0.117779 247.914 -1.39848 247.95C-1.9002 247.95 -1.95792 247.773 -1.9224 247.384C-1.76922 245.689 -1.62048 243.992 -1.52058 242.295C-1.4895 241.783 -1.20756 241.764 -0.787981 241.766C0.452999 241.779 1.69176 241.766 3.15252 241.766" fill="#19359A"/>
<path fill-rule="evenodd" clip-rule="evenodd" d="M27.0374 241.941C26.6423 243.122 25.9119 243.753 24.5377 243.511C23.6497 243.355 23.4055 243.78 23.4033 244.504C23.4033 245.356 23.3433 246.205 23.2967 247.055C23.2634 247.64 23.0747 247.99 22.2644 247.954C20.6594 247.881 20.6682 247.937 20.8303 246.436C21.0057 244.806 21.1189 243.17 21.3209 241.542C21.8071 237.611 24.5421 236.624 27.9587 237.151C28.7805 237.257 29.5382 237.626 30.1043 238.194C30.6703 238.763 31.0102 239.498 31.0667 240.274C31.1925 241.655 31.1597 243.044 30.969 244.419C30.9402 245.364 30.8358 246.307 30.8159 247.25C30.8159 247.767 30.6249 248.021 30.03 247.944C29.8577 247.933 29.6849 247.933 29.5127 247.944C28.2495 247.944 28.2562 247.944 28.3872 246.753C28.7213 244.793 28.8655 242.808 28.8179 240.823C28.6958 239.337 28.0453 238.742 26.6223 238.723C25.9665 238.675 25.3156 238.861 24.7999 239.244C24.2842 239.627 23.9416 240.178 23.8406 240.788C23.663 241.898 23.663 241.898 24.9129 241.898C25.5345 241.898 26.1553 241.898 26.7755 241.898C26.8663 241.907 26.9561 241.924 27.0441 241.948" fill="#19359A"/>
<path fill-rule="evenodd" clip-rule="evenodd" d="M70.8183 243.228C70.9603 241.287 71.1157 239.495 71.2045 237.7C71.2289 237.192 71.4132 237.017 71.9327 237.065C72.0703 237.078 72.208 237.065 72.3478 237.065C73.7797 237.065 73.7265 237.065 73.5822 238.391C73.2592 240.356 73.1107 242.342 73.1381 244.329C73.1304 244.59 73.1797 244.85 73.283 245.092C73.3864 245.334 73.5415 245.554 73.7389 245.738C73.9362 245.922 74.1717 246.066 74.4307 246.161C74.6897 246.257 74.9668 246.301 75.2449 246.292C76.8855 246.336 78.1198 245.574 78.2242 244.373C78.4107 242.245 78.5927 240.113 78.6681 237.981C78.6948 237.221 78.9368 237.024 79.7315 237.044C81.3255 237.084 81.3144 237.044 81.1768 238.456C80.8904 241.371 80.624 244.298 80.3354 247.217C80.3065 247.517 80.493 248.05 79.8803 247.969C79.2676 247.887 78.3263 248.418 77.9867 247.658C77.7647 247.186 77.516 247.45 77.4028 247.481C73.2447 248.855 70.6629 247.134 70.816 243.228" fill="#19359A"/>
<path fill-rule="evenodd" clip-rule="evenodd" d="M36.6457 237.034C37.405 237.034 38.1642 237.007 38.9212 237.034C39.907 236.982 40.8752 237.295 41.6164 237.907C42.3576 238.518 42.8121 239.379 42.8817 240.303C42.9779 240.831 43.0166 241.367 42.9971 241.902C42.8928 243.694 42.7263 245.483 42.622 247.275C42.5953 247.744 42.471 248.002 41.9094 247.921C41.8747 247.918 41.8397 247.918 41.805 247.921C40.0668 247.967 40.0912 247.969 40.2732 246.415C40.4508 244.912 40.5796 243.405 40.7172 241.9C40.7727 241.333 40.7246 240.762 40.5751 240.211C40.5055 239.761 40.253 239.353 39.8704 239.073C39.4878 238.793 39.0045 238.662 38.5216 238.708C35.76 238.614 35.7555 238.614 35.5624 241.113C35.4092 243.124 35.2383 245.133 35.1384 247.15C35.1073 247.754 34.9519 247.958 34.2504 247.946C32.5099 247.912 32.5143 247.946 32.663 246.401C32.9405 243.486 33.2291 240.588 33.4711 237.677C33.5155 237.151 33.6931 236.972 34.2637 237.005C35.054 237.049 35.8488 237.015 36.6413 237.015C36.6413 237.015 36.6413 237.026 36.6413 237.032" fill="#19359A"/>
<path fill-rule="evenodd" clip-rule="evenodd" d="M148.871 242.256C148.964 240.798 149.093 239.362 149.135 237.913C149.155 237.278 149.357 237.038 150.088 237.051C151.731 237.078 151.704 237.038 151.537 238.548C151.197 240.473 151.069 242.427 151.155 244.377C151.14 244.644 151.188 244.91 151.294 245.158C151.401 245.405 151.564 245.628 151.772 245.81C151.981 245.991 152.229 246.128 152.5 246.21C152.771 246.292 153.058 246.318 153.34 246.284C154.972 246.284 156.071 245.528 156.186 244.248C156.377 242.112 156.559 239.976 156.674 237.836C156.708 237.226 156.874 236.97 157.562 237.047C157.871 237.081 158.184 237.081 158.493 237.047C159.123 236.976 159.332 237.157 159.267 237.771C158.939 240.875 158.666 243.986 158.335 247.09C158.304 247.39 158.535 248.025 157.891 247.946C157.247 247.867 156.39 248.47 155.946 247.577C155.76 247.202 155.589 247.46 155.413 247.539C154.887 247.783 154.314 247.925 153.729 247.956C153.128 248.073 152.508 248.061 151.913 247.92C151.319 247.78 150.766 247.516 150.296 247.147C149.826 246.777 149.451 246.313 149.2 245.789C148.948 245.265 148.827 244.694 148.845 244.119C148.785 243.494 148.845 242.87 148.845 242.233H148.887" fill="#19359A"/>
<path fill-rule="evenodd" clip-rule="evenodd" d="M206.469 241.593C206.329 243.592 206.222 245.418 206.067 247.242C205.998 248.054 205.401 248.258 204.005 248.058C203.137 247.935 203.614 247.317 203.634 247.017C203.738 245.485 203.974 243.959 204.14 242.437C204.191 241.998 204.197 241.555 204.158 241.115C204.003 239.507 203.323 238.866 201.856 238.885C200.053 238.91 199.134 239.659 199.016 241.223C198.865 243.236 198.697 245.247 198.606 247.261C198.577 247.925 198.348 248.094 197.633 248.083C195.999 248.037 195.984 248.073 196.119 246.571C196.383 243.682 196.696 240.794 196.916 237.902C196.967 237.24 197.24 237.015 197.84 237.203C198.344 237.359 199.289 236.613 199.347 237.796C199.347 238.004 199.698 237.779 199.878 237.746C200.426 237.644 200.797 237.207 201.432 237.186C204.835 237.067 206.498 238.558 206.469 241.6" fill="#19359A"/>
<path fill-rule="evenodd" clip-rule="evenodd" d="M164.586 237.09C166.044 236.967 167.512 237.181 168.86 237.715C169.417 238.034 169.88 238.48 170.205 239.011C170.531 239.541 170.71 240.14 170.725 240.752C170.804 242.032 170.762 243.317 170.598 244.59C170.551 245.439 170.432 246.288 170.449 247.138C170.463 247.823 170.252 248.062 169.457 248.033C167.852 247.975 167.903 248.033 168.047 246.576C168.399 244.618 168.525 242.63 168.423 240.646C168.425 240.388 168.369 240.133 168.259 239.896C168.15 239.659 167.988 239.447 167.785 239.272C167.583 239.097 167.343 238.965 167.082 238.882C166.822 238.8 166.545 238.77 166.271 238.793C165.858 238.773 165.443 238.793 165.03 238.793C163.527 238.793 163.525 238.793 163.428 240.13C163.259 242.487 163.07 244.844 162.944 247.209C162.91 247.833 162.722 248.065 161.993 248.042C160.306 247.998 160.311 248.041 160.457 246.53C160.741 243.615 161.032 240.701 161.276 237.773C161.321 237.236 161.51 237.072 162.078 237.101C162.835 237.14 163.594 237.101 164.586 237.101" fill="#19359A"/>
<path fill-rule="evenodd" clip-rule="evenodd" d="M105.237 246.944C105.472 243.877 105.719 240.894 105.916 237.908C105.954 237.325 106.096 237.107 106.804 237.122C108.554 237.159 108.558 237.122 108.358 238.675C108.114 240.607 108.005 242.547 107.726 244.479C107.528 245.841 109.546 246.676 110.763 246.399C111.298 246.302 111.789 246.055 112.171 245.691C112.553 245.326 112.808 244.862 112.903 244.358C113.273 242.341 113.48 240.301 113.522 238.254C113.549 237.883 113.273 237.292 113.837 237.182C114.519 237.099 115.21 237.104 115.891 237.196C116.095 237.211 116.017 237.454 115.997 237.598C115.86 239.924 115.572 242.24 115.134 244.533C114.964 245.217 114.63 245.855 114.159 246.4C113.687 246.945 113.089 247.382 112.411 247.678C111.732 247.974 110.991 248.122 110.243 248.11C109.495 248.098 108.759 247.926 108.092 247.608C107.919 247.538 107.748 247.231 107.539 247.623C107.048 248.541 106.127 248.004 105.475 247.969C104.822 247.933 105.419 247.231 105.253 246.944" fill="#19359A"/>
<path fill-rule="evenodd" clip-rule="evenodd" d="M66.689 247.993C62.9483 247.993 61.3188 246.407 61.583 243.032C61.7117 241.304 61.856 239.576 61.936 237.848C61.9626 237.257 62.1202 236.963 62.8239 237.063C63.1674 237.092 63.5128 237.092 63.8562 237.063C64.2669 237.051 64.4867 237.14 64.4335 237.596C64.2359 239.262 64.096 240.927 63.8962 242.576C63.7757 243.399 63.8239 244.236 64.0383 245.041C64.1231 245.328 64.2864 245.589 64.5118 245.798C64.7373 246.007 65.0172 246.158 65.3237 246.234C65.7344 246.361 66.1828 246.465 66.2783 245.714C66.5868 243.276 66.7689 240.832 66.8999 238.383C66.982 236.822 66.6779 237.107 68.4539 237.065C68.5915 237.065 68.7314 237.084 68.8668 237.065C69.393 237.007 69.5927 237.157 69.5328 237.69C69.2087 240.761 68.8668 243.832 68.6448 246.907C68.5782 247.798 68.2985 248.156 67.3128 247.996C67.1067 247.979 66.8995 247.979 66.6934 247.996" fill="#19359A"/>
<path fill-rule="evenodd" clip-rule="evenodd" d="M143.417 238.902C143.984 238.487 144.483 237.996 144.897 237.444C145.7 237.062 146.613 236.932 147.501 237.074C147.839 237.261 147.61 237.519 147.457 237.6C146.138 238.296 146.525 239.206 146.773 240.307C147.059 241.874 146.882 243.484 146.26 244.962C145.953 245.874 145.333 246.664 144.496 247.21C143.66 247.756 142.654 248.028 141.636 247.981C140.786 248.006 139.694 248.321 139.141 247.852C138.588 247.384 139.116 246.426 139.165 245.685C139.336 243.043 139.587 240.403 139.742 237.761C139.778 237.149 140.011 237.055 140.604 237.059C142.398 237.059 142.369 237.04 142.202 238.631C141.951 241.015 141.758 243.403 141.514 245.789C141.467 246.245 141.643 246.355 142.08 246.284C142.507 246.242 142.913 246.088 143.25 245.839C143.588 245.59 143.843 245.256 143.987 244.877C144.511 243.44 144.7 241.914 144.54 240.403C144.522 240.08 144.408 239.768 144.209 239.503C144.011 239.238 143.737 239.031 143.419 238.906" fill="#19359A"/>
<path fill-rule="evenodd" clip-rule="evenodd" d="M184.786 237.147C185.944 236.97 187.132 237.184 188.137 237.75C189.143 238.317 189.902 239.2 190.278 240.242C190.643 241.521 190.571 242.875 190.074 244.115C189.577 245.354 188.679 246.416 187.506 247.153C185.91 247.933 184.104 248.253 182.315 248.073C181.965 248.073 181.871 247.923 181.834 247.613C181.606 245.225 181.246 242.851 180.757 240.499C180.693 240.19 180.697 240.067 181.088 239.993C182.919 239.634 183.106 239.755 183.268 241.45C183.399 242.799 183.605 244.144 183.712 245.495C183.758 246.139 184.1 246.295 184.702 246.276C185.201 246.258 185.688 246.125 186.12 245.889C186.552 245.653 186.916 245.321 187.179 244.923C187.584 244.394 187.864 243.79 188 243.152C188.136 242.514 188.126 241.855 187.97 241.221C187.929 240.869 187.813 240.528 187.629 240.219C187.445 239.91 187.196 239.639 186.898 239.422C186.599 239.205 186.258 239.047 185.892 238.957C185.527 238.867 185.147 238.846 184.773 238.897C184.579 238.936 184.378 238.937 184.183 238.9C183.989 238.864 183.804 238.79 183.641 238.684C183.478 238.578 183.339 238.442 183.234 238.284C183.129 238.126 183.06 237.949 183.03 237.765C182.89 237.317 182.853 237.117 183.45 237.151C183.894 237.178 184.338 237.151 184.793 237.151" fill="#19359A"/>
<path fill-rule="evenodd" clip-rule="evenodd" d="M13.1559 247.979C11.2999 247.979 11.311 247.969 11.0913 246.314C10.8838 244.402 10.5697 242.502 10.15 240.621C10.0123 240.066 10.1011 239.851 10.816 239.828C12.5076 239.776 12.4832 239.739 12.6208 241.254C12.7429 242.603 12.9339 243.948 13.0648 245.295C13.1248 245.92 13.4245 246.184 14.1216 246.128C14.566 246.101 14.9991 245.985 15.3914 245.787C15.9266 245.447 16.3799 245.006 16.7223 244.492C17.0647 243.978 17.2885 243.403 17.3792 242.803C17.47 242.203 17.4258 241.592 17.2493 241.009C17.0729 240.426 16.7682 239.884 16.3549 239.418C16.0059 239.134 15.5946 238.924 15.1501 238.805C14.7056 238.685 14.2386 238.659 13.7819 238.727C13.3818 238.686 13.0097 238.515 12.7302 238.243C12.4507 237.972 12.2816 237.617 12.2523 237.24C12.2923 236.957 12.5298 237.013 12.7207 237.013C13.7197 236.975 14.72 236.987 15.7177 237.047C16.3855 237.129 17.0276 237.341 17.6033 237.669C18.179 237.997 18.6758 238.433 19.062 238.951C19.4482 239.468 19.7155 240.055 19.8468 240.675C19.9781 241.294 19.9706 241.933 19.8247 242.549C19.6716 243.838 19.0968 245.049 18.1793 246.019C17.2618 246.988 16.0467 247.667 14.701 247.962C14.1937 248.042 13.6765 248.049 13.167 247.983" fill="#19359A"/>
<path fill-rule="evenodd" clip-rule="evenodd" d="M98.235 237.086C101.15 237.061 102.95 237.936 103.694 239.976C103.988 240.781 104.098 241.636 104.019 242.484C103.94 243.332 103.672 244.155 103.233 244.9C102.793 245.646 102.193 246.296 101.469 246.811C100.746 247.325 99.9156 247.692 99.032 247.887C98.0021 248.176 96.9095 248.204 95.8641 247.971C94.7363 247.571 95.2557 246.263 95.1137 245.393C94.8561 243.809 94.6475 242.214 94.3034 240.64C94.1924 240.132 94.2701 240.001 94.8406 239.945C96.5767 239.778 96.6166 239.749 96.752 241.336C97.0011 242.764 97.1258 244.208 97.125 245.656C97.0917 246.041 97.3026 246.186 97.74 246.23C98.3574 246.298 98.9822 246.189 99.5325 245.918C100.083 245.647 100.533 245.226 100.824 244.71C101.215 244.154 101.471 243.524 101.576 242.865C101.681 242.206 101.631 241.533 101.43 240.894C101.008 239.453 99.9533 238.833 98.0752 238.812C97.6556 238.812 97.1561 239.056 96.8542 238.435C96.206 237.103 96.1882 237.103 98.2395 237.084" fill="#19359A"/>
<path fill-rule="evenodd" clip-rule="evenodd" d="M177.982 237.076C178.361 237.044 178.743 237.048 179.121 237.088C179.514 237.182 180.324 236.768 180.231 237.365C180.147 237.881 180.069 238.823 178.926 238.758C178.065 238.711 177.201 238.72 176.342 238.783C175.689 238.829 174.985 238.941 174.816 239.676C174.648 240.411 175.26 240.734 175.862 241.009C176.57 241.331 177.312 241.596 178.002 241.943C178.65 242.2 179.185 242.658 179.516 243.24C179.848 243.822 179.956 244.493 179.822 245.141C179.74 245.779 179.445 246.376 178.979 246.847C178.514 247.318 177.901 247.639 177.229 247.765C175.57 248.05 173.877 248.12 172.197 247.973C172.093 247.976 171.991 247.946 171.908 247.888C171.825 247.829 171.766 247.746 171.739 247.652C171.713 247.116 171.856 246.584 172.15 246.124C172.372 245.658 172.832 246.074 173.14 246.141C174.154 246.346 175.198 246.377 176.224 246.234C176.799 246.166 177.389 245.968 177.5 245.31C177.548 245.04 177.495 244.763 177.351 244.524C177.208 244.286 176.981 244.101 176.71 244C175.864 243.584 174.983 243.213 174.162 242.751C173.53 242.466 173.022 241.985 172.726 241.389C172.429 240.794 172.36 240.12 172.532 239.483C172.748 238.894 173.131 238.372 173.639 237.972C174.148 237.572 174.762 237.31 175.418 237.213C176.269 237.086 177.13 237.035 177.991 237.061" fill="#19359A"/>
<path fill-rule="evenodd" clip-rule="evenodd" d="M60.5863 237.067C59.9203 238.72 59.9202 238.716 58.1909 238.733C57.5366 238.714 56.8818 238.735 56.2306 238.797C55.6889 238.868 55.1406 239.047 55.034 239.67C54.9275 240.292 55.3338 240.611 55.8532 240.848C56.6214 241.202 57.4072 241.51 58.1753 241.875C58.8231 242.127 59.361 242.577 59.7015 243.151C60.0421 243.726 60.1654 244.392 60.0512 245.041C59.9769 245.68 59.6868 246.279 59.2235 246.751C58.7602 247.224 58.1479 247.545 57.476 247.669C55.8339 248.059 54.1182 248.09 52.4611 247.76C51.9793 247.685 51.724 247.458 52.017 247.075C52.3101 246.692 51.8949 245.741 52.9472 245.968C54.1434 246.285 55.4012 246.339 56.6236 246.128C57.1453 246.018 57.6314 245.849 57.7336 245.295C57.7879 245.059 57.7576 244.812 57.6472 244.593C57.5368 244.375 57.3526 244.196 57.1231 244.085C56.0863 243.527 54.9719 243.082 53.9818 242.468C53.5797 242.207 53.2522 241.858 53.0282 241.45C52.8041 241.042 52.6904 240.589 52.697 240.131C52.7035 239.672 52.8303 239.223 53.0659 238.821C53.3016 238.419 53.6389 238.078 54.0483 237.827C54.8017 237.364 55.6787 237.11 56.5792 237.092C57.8823 237.038 59.1921 237.08 60.5752 237.08" fill="#19359A"/>
<path fill-rule="evenodd" clip-rule="evenodd" d="M117.227 248.002C118.06 246.238 118.06 246.239 119.92 246.259C120.69 246.33 121.462 246.16 122.118 245.775C122.773 245.39 123.273 244.812 123.541 244.131C123.909 243.382 124.039 242.549 123.915 241.731C123.792 240.914 123.42 240.148 122.844 239.524C122.364 239.099 121.727 238.866 121.068 238.872C120.204 238.872 119.341 238.852 118.479 238.889C118.298 238.915 118.113 238.878 117.959 238.785C117.804 238.692 117.691 238.55 117.64 238.385C117.03 237.113 117.014 237.109 118.528 237.115C119.638 237.115 120.737 237.126 121.838 237.184C122.888 237.199 123.9 237.554 124.704 238.187C125.507 238.821 126.053 239.695 126.249 240.663C126.476 241.56 126.479 242.495 126.256 243.393C126.034 244.291 125.593 245.129 124.967 245.841C124.342 246.553 123.55 247.119 122.652 247.496C121.754 247.873 120.776 248.049 119.793 248.012C118.974 247.941 118.139 248.012 117.225 248.012" fill="#19359A"/>
<path fill-rule="evenodd" clip-rule="evenodd" d="M45.4414 237.057C46.2411 236.927 47.0622 236.978 47.8367 237.206C48.6111 237.433 49.3167 237.83 49.8947 238.365C50.5105 239.044 50.8502 239.906 50.8538 240.798C50.9736 243.066 50.5519 245.318 50.4964 247.582C50.4964 247.844 50.3721 247.946 50.0724 247.998C48.3541 248.283 48.0255 248.012 48.1765 246.459C48.3385 244.794 48.5494 243.128 48.5983 241.473C48.6604 239.351 47.9811 238.781 45.6945 238.779C45.2505 238.779 44.8065 238.75 44.3625 238.779C44.282 238.8 44.1977 238.805 44.1149 238.795C44.032 238.784 43.9524 238.758 43.8809 238.717C43.8094 238.677 43.7474 238.623 43.6989 238.559C43.6504 238.495 43.6164 238.422 43.5988 238.346C43.0616 236.868 42.8396 237.042 44.4868 237.051H45.4547" fill="#19359A"/>
<path fill-rule="evenodd" clip-rule="evenodd" d="M193.036 248.05C191.482 248.05 191.506 248.06 191.666 246.801C192.03 243.898 192.332 240.988 192.396 238.056C192.416 237.223 192.643 236.98 193.557 237.026C195.069 237.101 195.058 237.045 194.914 238.483C194.634 241.267 194.31 244.05 194.248 246.848C194.228 247.746 194.077 248.366 193.034 248.046" fill="#19359A"/>
<path fill-rule="evenodd" clip-rule="evenodd" d="M34.3191 233.309C34.0328 234.384 33.4866 234.871 32.3389 234.738C31.924 234.627 31.4807 234.655 31.0858 234.818C30.6909 234.981 30.3693 235.269 30.1766 235.631C29.9169 236.124 29.2131 235.974 28.7647 235.854C28.3163 235.733 28.5604 235.252 28.6293 234.952C28.7146 234.472 28.9869 234.039 29.3933 233.737C29.7998 233.434 30.3115 233.284 30.8293 233.316C31.9593 233.282 33.0915 233.316 34.3191 233.316" fill="#19359A"/>
<path fill-rule="evenodd" clip-rule="evenodd" d="M175.593 250.898C176.068 249.134 176.575 248.851 178.368 249.161C178.768 249.23 178.772 249.405 178.739 249.678C178.621 250.644 178.517 251.612 178.397 252.58C178.297 253.446 177.567 252.996 177.116 253.067C176.45 253.171 176.672 252.69 176.672 252.38C176.668 252.286 176.674 252.192 176.692 252.099C176.865 251.304 177.123 250.458 175.6 250.898" fill="#19359A"/>
<path fill-rule="evenodd" clip-rule="evenodd" d="M92.3233 235.185C92.4099 234.69 92.4692 234.19 92.501 233.688C92.501 233.17 92.723 233.035 93.2869 232.999C94.2015 232.941 94.5433 233.157 94.288 234.028C94.1941 234.458 94.165 234.898 94.2015 235.335C94.2015 235.831 94.0505 236.03 93.4422 236.06C92.5187 236.105 92.0325 235.939 92.3322 235.185" fill="#19359A"/>
<path fill-rule="evenodd" clip-rule="evenodd" d="M121.13 206.844C121.279 213.371 121.41 219.897 121.603 226.414C121.629 227.29 121.332 227.436 120.457 227.434C118.767 227.479 117.081 227.237 115.482 226.722C113.865 226.241 112.455 225.284 111.463 223.993C110.471 222.702 109.948 221.145 109.972 219.554C109.972 214.919 110.105 210.285 110.221 205.651C110.314 201.841 110.467 198.033 110.578 194.223C110.578 193.942 110.845 193.5 110.374 193.406C109.903 193.313 109.914 193.794 109.815 194.064C106.746 201.865 102.976 209.408 98.5458 216.61C96.4447 219.882 94.7105 223.35 93.371 226.957C93.3516 227.098 93.2737 227.226 93.1544 227.313C93.035 227.4 92.8839 227.439 92.7338 227.422C90.0417 227.409 87.3496 227.409 84.6575 227.422C84.3067 227.422 84.1158 227.376 84.0514 226.98C83.1349 222.775 81.8169 218.655 80.1132 214.672C77.7808 209.021 75.8975 203.217 74.4788 197.306C74.2568 196.255 74.1191 195.191 73.9216 194.135C73.8705 193.86 73.9904 193.392 73.4775 193.434C73.0913 193.465 73.1801 193.875 73.1423 194.139C72.7427 196.919 72.372 199.702 71.948 202.48C71.1843 207.476 70.4228 212.473 69.5948 217.47C69.0842 220.553 68.6668 223.645 68.3738 226.749C68.3161 227.357 68.0186 227.438 67.4436 227.434C64.3711 227.411 61.2986 227.39 58.2284 227.434C57.3404 227.449 57.2826 227.176 57.4491 226.512C58.9099 220.682 60.3352 214.842 61.7959 209.009C63.2389 203.208 64.7308 197.418 65.9518 191.574C66.2715 190.046 66.5578 188.514 66.853 186.982C66.857 186.873 66.8859 186.766 66.9375 186.669C66.9892 186.572 67.0625 186.486 67.1526 186.417C67.2426 186.349 67.3474 186.299 67.4596 186.272C67.5718 186.245 67.689 186.24 67.8032 186.259C72.6006 186.282 77.4003 186.259 82.1977 186.276C82.5374 186.276 82.9525 186.134 82.9548 186.74C83.1241 189.529 83.6617 192.288 84.5553 194.953C85.9983 200.237 88.0252 205.376 89.375 210.685C89.9476 212.697 90.3192 214.756 90.485 216.833C90.485 217.001 90.3718 217.249 90.667 217.301C91.0022 217.366 91.0533 217.122 91.111 216.902C92.8047 211.698 95.1467 206.7 98.0885 202.011C100.191 198.153 102.371 194.329 104.082 190.304C104.32 189.746 104.506 189.172 104.748 188.614C105.055 187.895 104.886 186.827 105.552 186.488C106.218 186.149 107.23 186.415 108.092 186.413C112.199 186.413 116.306 186.43 120.415 186.39C121.125 186.39 121.272 186.528 121.232 187.161C120.824 193.715 121.01 200.277 121.145 206.831" fill="#19359A"/>
<path fill-rule="evenodd" clip-rule="evenodd" d="M44.1671 204.585C44.8864 204.724 45.6079 204.861 46.3271 205.001C48.6553 205.445 50.8602 206.336 52.8029 207.618C54.1761 208.605 55.1925 209.964 55.7143 211.511C56.2361 213.058 56.2381 214.718 55.72 216.266C54.61 221.12 50.7716 223.537 46.0718 225.1C40.777 226.693 35.2364 227.448 29.6771 227.334C24.469 227.382 19.2565 227.241 14.0461 227.197C13.4667 227.197 13.1848 227.147 13.2958 226.474C13.9884 222.331 14.4502 218.161 14.8631 213.983C15.5047 207.468 16.1085 200.949 16.4881 194.412C16.6346 191.893 16.7101 189.372 16.7745 186.85C16.7878 186.278 16.941 186.107 17.587 186.109C26.043 186.13 34.499 186.068 42.955 186.155C45.7951 186.192 48.5755 186.925 51.0202 188.281C55.498 190.727 55.2737 195.203 53.642 198.349C52.8716 199.658 51.8244 200.805 50.5648 201.721C49.3051 202.637 47.8594 203.303 46.316 203.677C45.5923 203.912 44.8597 204.129 44.1316 204.353L44.1582 204.562M25.2061 216.652C25.2061 217.849 25.266 219.05 25.1839 220.243C25.1328 220.995 25.4214 221.242 26.1962 221.284C29.4694 221.463 32.7529 221.379 36.0108 221.032C37.8295 220.867 39.608 220.429 41.2789 219.735C42.0763 219.427 42.7857 218.947 43.3499 218.335C43.9142 217.723 44.3177 216.996 44.5282 216.211C44.7386 215.427 44.7501 214.607 44.5617 213.818C44.3733 213.028 43.9903 212.291 43.4434 211.665C42.2105 210.582 40.6676 209.858 39.0034 209.583C36.921 209.109 34.7676 209.077 32.6519 208.794C32.0505 208.797 31.4556 208.676 30.909 208.441C30.3623 208.205 29.877 207.861 29.4869 207.432C29.0967 207.002 28.8111 206.498 28.6499 205.955C28.4888 205.411 28.456 204.841 28.5538 204.285C28.5893 203.569 28.8558 203.204 29.7193 203.223C31.4446 203.259 33.1701 203.163 34.8786 202.936C37.0112 202.757 39.0702 202.116 40.8926 201.062C41.8045 200.503 42.5082 199.691 42.906 198.74C43.3038 197.788 43.376 196.744 43.1126 195.753C42.8525 194.898 42.3608 194.121 41.6854 193.498C41.01 192.874 40.174 192.425 39.2587 192.195C35.3723 191.619 31.4159 191.594 27.5215 192.12C26.9998 192.174 26.8378 192.328 26.8311 192.819C26.7467 198.455 26.3516 204.062 25.7433 209.683C25.4947 211.988 25.3282 214.322 25.2061 216.652Z" fill="#19359A"/>
<path fill-rule="evenodd" clip-rule="evenodd" d="M185.657 186.14C188.003 186.14 190.35 186.14 192.696 186.14C193.125 186.14 193.44 186.122 193.584 186.661C195.122 192.122 196.95 197.507 199.063 202.796C201.021 208.132 203.059 213.447 204.971 218.794C205.918 221.238 206.722 223.729 207.379 226.256C207.537 226.932 207.45 227.203 206.582 227.192C204.308 227.303 202.028 227.107 199.813 226.61C198.073 226.264 196.477 225.45 195.223 224.267C193.968 223.083 193.11 221.582 192.752 219.947C192.479 218.684 191.988 217.459 191.699 216.2C191.535 215.486 191.16 215.329 190.425 215.34C187.838 215.376 185.248 215.376 182.655 215.34C181.468 215.416 180.291 215.098 179.33 214.44C178.369 213.783 177.686 212.829 177.4 211.746C177.371 211.624 177.348 211.5 177.332 211.376C177.083 209.392 177.154 209.317 179.33 209.317C182.504 209.317 185.681 209.294 188.856 209.333C189.653 209.333 189.841 209.267 189.57 208.484C187.881 203.627 186.167 198.776 184.74 193.846C184.582 193.304 184.473 192.75 184.347 192.201C184.298 191.993 184.307 191.735 183.985 191.71C183.663 191.685 183.614 191.901 183.521 192.126C181.592 196.681 179.121 201.016 176.892 205.451C173.895 211.407 171.209 217.48 168.514 223.549C168.088 224.511 167.748 225.505 167.497 226.52C167.357 227.086 167.106 227.195 166.536 227.192C162.946 227.17 159.356 227.151 155.769 227.192C154.799 227.205 154.845 226.92 155.165 226.287C157.189 222.285 159.52 218.43 161.785 214.542C166.689 206.123 171.886 197.845 176.413 189.247C176.842 188.465 177.213 187.656 177.523 186.825C177.745 186.215 178.106 186.113 178.732 186.122C181.043 186.153 183.357 186.134 185.67 186.134" fill="#19359A"/>
<path fill-rule="evenodd" clip-rule="evenodd" d="M149.428 186.424C156.848 186.424 164.269 186.444 171.688 186.401C172.72 186.401 172.645 186.696 172.376 187.369C171.675 188.971 170.457 190.327 168.893 191.249C167.329 192.17 165.498 192.61 163.654 192.507C160.275 192.553 156.892 192.434 153.515 192.326C152.581 192.297 152.27 192.476 152.183 193.409C151.295 202.702 150.436 211.998 149.963 221.321C149.874 223.054 149.741 224.784 149.69 226.516C149.672 227.057 149.49 227.19 148.913 227.188C145.532 227.165 142.149 227.174 138.768 227.188C138.215 227.188 138.004 227.122 138.082 226.506C138.683 221.813 139.296 217.118 139.776 212.413C140.421 206.078 140.949 199.734 141.359 193.381C141.416 192.472 141.114 192.297 140.2 192.34C135.518 192.528 130.831 192.653 126.149 192.83C125.557 192.853 125.25 192.844 125.355 192.178C125.617 190.527 125.843 188.87 126.043 187.211C126.116 186.586 126.367 186.403 127.08 186.407C134.534 186.438 141.989 186.426 149.444 186.426" fill="#19359A"/>
</g>
</g>
<defs>
<clipPath id="clip0_96_2187">
<rect width="222" height="254" fill="white"/>
</clipPath>
</defs>
</svg>
