<svg width="24" height="24" viewBox="0 0 24 24" fill="none" xmlns="http://www.w3.org/2000/svg">
<path fill-rule="evenodd" clip-rule="evenodd" d="M20.3071 21.5032H13.6122C13.2301 21.5032 12.9199 21.1927 12.9199 20.8102C12.9199 20.4276 13.2301 20.1172 13.6122 20.1172H20.3071C20.6893 20.1172 20.9994 20.4276 20.9994 20.8102C20.9994 21.1927 20.6893 21.5032 20.3071 21.5032Z" fill="white"/>
<mask id="mask0_8325_99816" style="mask-type:luminance" maskUnits="userSpaceOnUse" x="3" y="4" width="16" height="18">
<path fill-rule="evenodd" clip-rule="evenodd" d="M3 4H18.8586V21.5H3V4Z" fill="white"/>
</mask>
<g mask="url(#mask0_8325_99816)">
<path fill-rule="evenodd" clip-rule="evenodd" d="M13.2554 5.86335L4.56486 16.7434C4.40702 16.9411 4.34887 17.1961 4.40702 17.441L5.03562 20.1067L7.84078 20.0716C8.10754 20.0688 8.354 19.9496 8.51738 19.7463C11.4868 16.0273 17.1479 8.93655 17.3086 8.72865C17.4599 8.48287 17.519 8.13545 17.4396 7.80097C17.3584 7.45817 17.1452 7.16711 16.8378 6.98138C16.7723 6.93611 15.2169 5.72753 15.1689 5.68964C14.5837 5.22025 13.7299 5.30157 13.2554 5.86335ZM4.48914 21.5001C4.16884 21.5001 3.89008 21.2802 3.81531 20.9669L3.05933 17.7598C2.90333 17.0954 3.05841 16.4098 3.48393 15.8776L12.1791 4.99111C12.1828 4.98742 12.1856 4.9828 12.1893 4.9791C13.1428 3.83797 14.867 3.6698 16.0301 4.60396C16.0762 4.64 17.6205 5.84119 17.6205 5.84119C18.1817 6.17567 18.6202 6.7735 18.7863 7.48127C18.9516 8.18166 18.8316 8.90422 18.4466 9.51498C18.418 9.56026 18.3931 9.59907 9.59825 20.6131C9.17456 21.1416 8.5395 21.4493 7.85737 21.4576L4.49837 21.5001H4.48914Z" fill="white"/>
</g>
<path fill-rule="evenodd" clip-rule="evenodd" d="M16.129 12.0207C15.9813 12.0207 15.8336 11.9735 15.7072 11.8774L10.6747 8.00776C10.3719 7.77491 10.3147 7.34063 10.5473 7.03572C10.7808 6.73265 11.2147 6.67628 11.5184 6.90913L16.5518 10.7779C16.8545 11.0107 16.9118 11.4459 16.6782 11.7499C16.5425 11.9273 16.3367 12.0207 16.129 12.0207Z" fill="white"/>
</svg>
