<svg width="20" height="20" viewBox="0 0 20 20" fill="none" xmlns="http://www.w3.org/2000/svg">
<path d="M9.52122 3.36035H6.87462C4.69802 3.36035 3.33331 4.89855 3.33331 7.07618V12.9506C3.33331 15.1282 4.69165 16.6664 6.87462 16.6664H13.1206C15.3042 16.6664 16.6626 15.1282 16.6626 12.9506V10.1045" stroke="#019F67" stroke-width="1.5" stroke-linecap="round" stroke-linejoin="round"/>
<path fill-rule="evenodd" clip-rule="evenodd" d="M7.63521 9.10601L12.9249 3.82584C13.5839 3.16873 14.652 3.16873 15.311 3.82584L16.1724 4.68573C16.8314 5.34354 16.8314 6.41046 16.1724 7.06756L10.8573 12.3732C10.5692 12.6607 10.1785 12.8225 9.77076 12.8225H7.1192L7.18574 10.1517C7.19565 9.75888 7.35633 9.3844 7.63521 9.10601Z" stroke="#019F67" stroke-width="1.5" stroke-linecap="round" stroke-linejoin="round"/>
<path d="M12.121 4.6416L15.353 7.86778" stroke="#019F67" stroke-width="1.5" stroke-linecap="round" stroke-linejoin="round"/>
</svg>
