<svg width="105" height="20" viewBox="0 0 105 20" fill="none" xmlns="http://www.w3.org/2000/svg">
<path d="M0.5 10H38.5" stroke="#019F67" stroke-dasharray="8 8"/>
<path d="M57.5757 4.80762H47.0075C46.359 4.80762 45.8333 5.32421 45.8333 5.96146V10.5768C45.8333 11.2141 46.359 11.7307 47.0075 11.7307H57.5757C58.2242 11.7307 58.7499 11.2141 58.7499 10.5768V5.96146C58.7499 5.32421 58.2242 4.80762 57.5757 4.80762Z" stroke="#019F67" stroke-width="1.25" stroke-linecap="round" stroke-linejoin="round"/>
<path d="M57.5757 11.731H47.0075C46.359 11.731 45.8333 12.2476 45.8333 12.8848V15.1925C45.8333 15.8297 46.359 16.3463 47.0075 16.3463H57.5757C58.2242 16.3463 58.7499 15.8297 58.7499 15.1925V12.8848C58.7499 12.2476 58.2242 11.731 57.5757 11.731Z" stroke="#019F67" stroke-width="1.25" stroke-linecap="round" stroke-linejoin="round"/>
<path d="M57.5757 4.80769H47.0075C46.6963 4.80684 46.3982 4.685 46.1781 4.46879C45.9581 4.25259 45.8341 3.9596 45.8333 3.65385C45.8341 3.34809 45.9581 3.0551 46.1781 2.8389C46.3982 2.6227 46.6963 2.50086 47.0075 2.5H57.5757C57.8868 2.50086 58.185 2.6227 58.405 2.8389C58.6251 3.0551 58.749 3.34809 58.7499 3.65385C58.749 3.9596 58.6251 4.25259 58.405 4.46879C58.185 4.685 57.8868 4.80684 57.5757 4.80769ZM48.1817 16.3462V17.1394C48.1817 17.2351 48.1431 17.3268 48.0743 17.3944C48.0054 17.462 47.9121 17.5 47.8148 17.5H46.7873C46.69 17.5 46.5967 17.462 46.5279 17.3944C46.459 17.3268 46.4204 17.2351 46.4204 17.1394V16.3462H48.1817ZM58.1628 16.3462V17.1394C58.1628 17.2351 58.1241 17.3268 58.0553 17.3944C57.9865 17.462 57.8932 17.5 57.7958 17.5H56.7684C56.6711 17.5 56.5777 17.462 56.5089 17.3944C56.4401 17.3268 56.4014 17.2351 56.4014 17.1394V16.3462H58.1628Z" stroke="#019F67" stroke-width="1.25" stroke-linecap="round" stroke-linejoin="round"/>
<path d="M56.4018 14.6153C56.7261 14.6153 56.9889 14.357 56.9889 14.0383C56.9889 13.7197 56.7261 13.4614 56.4018 13.4614C56.0776 13.4614 55.8147 13.7197 55.8147 14.0383C55.8147 14.357 56.0776 14.6153 56.4018 14.6153Z" stroke="#019F67" stroke-width="1.25" stroke-linejoin="round"/>
<path d="M48.1818 14.6153C48.5061 14.6153 48.769 14.357 48.769 14.0383C48.769 13.7197 48.5061 13.4614 48.1818 13.4614C47.8576 13.4614 47.5947 13.7197 47.5947 14.0383C47.5947 14.357 47.8576 14.6153 48.1818 14.6153Z" stroke="#019F67" stroke-width="1.25" stroke-linejoin="round"/>
<path d="M52.2916 4.80765V11.7307M45.8333 3.65381V14.0384M58.7499 3.65381V14.0384" stroke="#019F67" stroke-width="1.25" stroke-linecap="round" stroke-linejoin="round"/>
<path d="M66.5 10H104.5" stroke="#019F67" stroke-dasharray="8 8"/>
</svg>
