<svg width="20" height="20" viewBox="0 0 20 20" fill="none" xmlns="http://www.w3.org/2000/svg">
<path d="M10.0001 17.4998C9.59826 17.4998 9.45264 17.1766 9.45264 16.778L9.27246 7.1485C9.27246 6.74989 9.59823 6.42676 10.0001 6.42676C10.402 6.42676 10.7277 6.74989 10.7277 7.1485L10.5475 16.778C10.5476 17.1766 10.402 17.4998 10.0001 17.4998Z" fill="#D1D5DB"/>
<path d="M10.0001 6.42676C9.59823 6.42676 9.27246 6.74989 9.27246 7.1485L9.32507 9.95997C9.54198 10.0097 9.76796 10.0359 10.0001 10.0359C10.2322 10.0359 10.4582 10.0097 10.6751 9.96L10.7277 7.14853C10.7277 6.74992 10.4019 6.42676 10.0001 6.42676Z" fill="#9CA3AF"/>
<path d="M10.0001 9.11271C11.841 9.11271 13.3334 7.6324 13.3334 5.80635C13.3334 3.9803 11.841 2.5 10.0001 2.5C8.15913 2.5 6.66675 3.9803 6.66675 5.80635C6.66675 7.6324 8.15913 9.11271 10.0001 9.11271Z" fill="#019F67"/>
<path d="M7.61285 5.08534C7.87671 5.25849 8.33117 5.03819 8.62792 4.59327C8.92467 4.14836 8.95134 3.64732 8.68748 3.47416C8.42362 3.30101 7.96915 3.52132 7.6724 3.96623C7.37565 4.41115 7.34899 4.91219 7.61285 5.08534Z" fill="#F1FAF7"/>
</svg>
