<svg width="72" height="72" viewBox="0 0 72 72" fill="none" xmlns="http://www.w3.org/2000/svg">
<circle cx="36" cy="36" r="36" fill="#F1FAF7"/>
<path d="M36 20C27.184 20 20 27.184 20 36C20 44.816 27.184 52 36 52C44.816 52 52 44.816 52 36C52 27.184 44.816 20 36 20ZM43.648 32.32L34.576 41.392C34.352 41.616 34.048 41.744 33.728 41.744C33.408 41.744 33.104 41.616 32.88 41.392L28.352 36.864C27.888 36.4 27.888 35.632 28.352 35.168C28.816 34.704 29.584 34.704 30.048 35.168L33.728 38.848L41.952 30.624C42.416 30.16 43.184 30.16 43.648 30.624C44.112 31.088 44.112 31.84 43.648 32.32Z" fill="#019F67"/>
</svg>
