<svg width="40" height="40" viewBox="0 0 40 40" fill="none" xmlns="http://www.w3.org/2000/svg">
<circle cx="20" cy="20" r="20" fill="#F1FAF7"/>
<path fill-rule="evenodd" clip-rule="evenodd" d="M12.172 11.172C11 12.343 11 14.229 11 18V22C11 25.771 11 27.657 12.172 28.828C13.344 29.999 15.229 30 19 30H21C24.771 30 26.657 30 27.828 28.828C28.999 27.656 29 25.771 29 22V18C29 14.229 29 12.343 27.828 11.172C26.656 10.001 24.771 10 21 10H19C15.229 10 13.343 10 12.172 11.172ZM20.75 14C20.75 13.8011 20.671 13.6103 20.5303 13.4697C20.3897 13.329 20.1989 13.25 20 13.25C19.8011 13.25 19.6103 13.329 19.4697 13.4697C19.329 13.6103 19.25 13.8011 19.25 14V15.25H18C17.8011 15.25 17.6103 15.329 17.4697 15.4697C17.329 15.6103 17.25 15.8011 17.25 16C17.25 16.1989 17.329 16.3897 17.4697 16.5303C17.6103 16.671 17.8011 16.75 18 16.75H19.25V18C19.25 18.1989 19.329 18.3897 19.4697 18.5303C19.6103 18.671 19.8011 18.75 20 18.75C20.1989 18.75 20.3897 18.671 20.5303 18.5303C20.671 18.3897 20.75 18.1989 20.75 18V16.75H22C22.1989 16.75 22.3897 16.671 22.5303 16.5303C22.671 16.3897 22.75 16.1989 22.75 16C22.75 15.8011 22.671 15.6103 22.5303 15.4697C22.3897 15.329 22.1989 15.25 22 15.25H20.75V14ZM16 21.25C15.8011 21.25 15.6103 21.329 15.4697 21.4697C15.329 21.6103 15.25 21.8011 15.25 22C15.25 22.1989 15.329 22.3897 15.4697 22.5303C15.6103 22.671 15.8011 22.75 16 22.75H24C24.1989 22.75 24.3897 22.671 24.5303 22.5303C24.671 22.3897 24.75 22.1989 24.75 22C24.75 21.8011 24.671 21.6103 24.5303 21.4697C24.3897 21.329 24.1989 21.25 24 21.25H16ZM17 25.25C16.8011 25.25 16.6103 25.329 16.4697 25.4697C16.329 25.6103 16.25 25.8011 16.25 26C16.25 26.1989 16.329 26.3897 16.4697 26.5303C16.6103 26.671 16.8011 26.75 17 26.75H23C23.1989 26.75 23.3897 26.671 23.5303 26.5303C23.671 26.3897 23.75 26.1989 23.75 26C23.75 25.8011 23.671 25.6103 23.5303 25.4697C23.3897 25.329 23.1989 25.25 23 25.25H17Z" fill="#019F67"/>
</svg>
