<svg width="40" height="40" viewBox="0 0 40 40" fill="none" xmlns="http://www.w3.org/2000/svg">
<circle cx="20" cy="20" r="20" fill="#F1FAF7"/>
<path fill-rule="evenodd" clip-rule="evenodd" d="M15.33 10H24.669C28.07 10 29.99 11.929 30 15.33V24.67C30 28.07 28.07 30 24.669 30H15.33C11.929 30 10 28.07 10 24.67V15.33C10 11.929 11.929 10 15.33 10ZM20.0491 25.86C20.4801 25.86 20.8391 25.54 20.8791 25.11V14.92C20.9191 14.61 20.7701 14.299 20.5001 14.13C20.2191 13.96 19.8791 13.96 19.6101 14.13C19.3391 14.299 19.1901 14.61 19.2191 14.92V25.11C19.2701 25.54 19.6291 25.86 20.0491 25.86ZM24.65 25.86C25.07 25.86 25.429 25.54 25.48 25.11V21.83C25.509 21.509 25.36 21.21 25.089 21.04C24.82 20.87 24.48 20.87 24.2 21.04C23.929 21.21 23.78 21.509 23.82 21.83V25.11C23.86 25.54 24.219 25.86 24.65 25.86ZM16.219 25.1099C16.179 25.5399 15.82 25.8599 15.389 25.8599C14.959 25.8599 14.599 25.5399 14.56 25.1099V18.1999C14.53 17.8889 14.679 17.5799 14.95 17.4099C15.219 17.2399 15.56 17.2399 15.83 17.4099C16.099 17.5799 16.25 17.8889 16.219 18.1999V25.1099Z" fill="#019F67"/>
</svg>
