<svg width="25" height="24" viewBox="0 0 25 24" fill="none" xmlns="http://www.w3.org/2000/svg">
<path d="M14.118 2.87399L3.30257 4.01074C2.8245 4.06098 2.38548 4.29441 2.08209 4.65966C1.77869 5.02491 1.63578 5.49207 1.68479 5.95837L2.91673 17.6795C2.94267 17.9267 3.02187 18.1655 3.14913 18.3802C3.27638 18.5949 3.44884 18.7807 3.65518 18.9255L3.72548 19.5943C3.75203 19.8469 3.88036 20.0783 4.08224 20.2377C4.28412 20.397 4.54301 20.4712 4.80197 20.444L5.85347 20.3335C6.11242 20.3063 6.35023 20.1799 6.51457 19.982C6.6789 19.7842 6.75631 19.5311 6.72977 19.2785L6.70667 19.0588L13.917 18.3009L13.9401 18.5207C13.9666 18.7733 14.0949 19.0047 14.2968 19.1641C14.4987 19.3234 14.7576 19.3977 15.0165 19.3704L16.068 19.2599C16.327 19.2327 16.5648 19.1063 16.7291 18.9084C16.8935 18.7106 16.9709 18.4575 16.9443 18.205L16.874 17.5361C17.0458 17.3516 17.1758 17.134 17.2557 16.8975C17.3355 16.661 17.3633 16.411 17.3373 16.1639L16.1054 4.44271C16.0563 3.97641 15.8194 3.54917 15.4467 3.25498C15.074 2.96079 14.5961 2.82374 14.118 2.87399ZM6.05064 17.3435C5.80607 17.3957 5.55132 17.3727 5.32152 17.2776C5.09172 17.1824 4.89821 17.0199 4.7677 16.8124C4.63718 16.6048 4.57609 16.3626 4.59285 16.119C4.60962 15.8754 4.70342 15.6425 4.8613 15.4524C5.01918 15.2623 5.23336 15.1245 5.4743 15.0578C5.71523 14.9912 5.97103 14.999 6.2064 15.0803C6.44177 15.1616 6.64511 15.3123 6.78836 15.5116C6.93161 15.711 7.0077 15.9491 7.00614 16.1931C7.00442 16.4618 6.90876 16.7222 6.735 16.9314C6.56124 17.1406 6.3198 17.286 6.05064 17.3435ZM8.94477 12.8982L4.28813 13.3877C4.12877 13.4044 3.96945 13.3587 3.84521 13.2607C3.72098 13.1626 3.64201 13.0202 3.62567 12.8648L3.13289 8.17629C3.11656 8.02086 3.16419 7.86514 3.26533 7.74339C3.36646 7.62164 3.5128 7.54383 3.67215 7.52708L8.3288 7.03765C8.36863 7.03346 8.40847 7.04488 8.43952 7.0694C8.47058 7.09392 8.49032 7.12952 8.49441 7.16838L9.07958 12.7359C9.08367 12.7748 9.07176 12.8137 9.04647 12.8441C9.02119 12.8746 8.98461 12.894 8.94477 12.8982ZM8.95667 5.78659L3.56623 6.35315C3.24327 6.3871 2.93997 6.17456 2.89037 5.86165C2.87791 5.78273 2.88203 5.70207 2.9025 5.62458C2.92296 5.54709 2.95934 5.47439 3.00942 5.4109C3.0595 5.34741 3.12223 5.29445 3.1938 5.25525C3.26538 5.21604 3.3443 5.19141 3.42577 5.18285L14.2239 4.04792C14.5469 4.01398 14.8502 4.22652 14.8998 4.53942C14.9122 4.61835 14.9081 4.69901 14.8877 4.7765C14.8672 4.85398 14.8308 4.92668 14.7807 4.99018C14.7307 5.05367 14.6679 5.10662 14.5963 5.14583C14.5248 5.18503 14.4459 5.20966 14.3644 5.21822L8.95667 5.78659ZM9.83094 6.87977L14.4876 6.39034C14.6469 6.37359 14.8063 6.41927 14.9305 6.51733C15.0547 6.6154 15.1337 6.75781 15.15 6.91324L15.6428 11.6017C15.6591 11.7571 15.6115 11.9129 15.5104 12.0346C15.4092 12.1564 15.2629 12.2342 15.1036 12.2509L10.4469 12.7403C10.4071 12.7445 10.3672 12.7331 10.3362 12.7086C10.3051 12.6841 10.2854 12.6485 10.2813 12.6096L9.69612 7.04207C9.69204 7.00321 9.70395 6.96428 9.72923 6.93385C9.75451 6.90341 9.7911 6.88396 9.83094 6.87977ZM13.0282 15.5602C12.976 15.3218 13.0009 15.0731 13.0996 14.8483C13.1982 14.6235 13.3658 14.4339 13.5791 14.3054C13.7924 14.177 14.041 14.1161 14.2905 14.1312C14.5401 14.1463 14.7782 14.2366 14.9722 14.3897C15.1661 14.5428 15.3063 14.7511 15.3734 14.9859C15.4404 15.2207 15.431 15.4704 15.3465 15.7005C15.262 15.9306 15.1065 16.1298 14.9015 16.2707C14.6965 16.4115 14.4521 16.487 14.202 16.4867C13.9268 16.4864 13.6604 16.3944 13.4469 16.2259C13.2335 16.0575 13.0858 15.8226 13.0282 15.5602Z" fill="#019F67"/>
<path d="M19.905 4L18.5 2L18 5L20.5 9L23.5 10L21.5 7.461L23.5 6.528L21.5 5.595L23.5 2L19.905 4Z" fill="#019F67"/>
</svg>