<svg width="25" height="24" viewBox="0 0 25 24" fill="none" xmlns="http://www.w3.org/2000/svg">
<path d="M18.8125 2H5.6875C5.10734 2 4.55094 2.22576 4.1407 2.62763C3.73047 3.02949 3.5 3.57454 3.5 4.14286V18.4286C3.49995 18.7298 3.56488 19.0277 3.69054 19.3027C3.8162 19.5776 3.99975 19.8235 4.22917 20.0241V20.8393C4.22917 21.1471 4.354 21.4424 4.57621 21.66C4.79843 21.8777 5.09981 22 5.41406 22H6.6901C7.00436 22 7.30574 21.8777 7.52795 21.66C7.75016 21.4424 7.875 21.1471 7.875 20.8393V20.5714H16.625V20.8393C16.625 21.1471 16.7498 21.4424 16.972 21.66C17.1943 21.8777 17.4956 22 17.8099 22H19.0859C19.4002 22 19.7016 21.8777 19.9238 21.66C20.146 21.4424 20.2708 21.1471 20.2708 20.8393V20.0241C20.5002 19.8235 20.6838 19.5776 20.8095 19.3027C20.9351 19.0277 21 18.7298 21 18.4286V4.14286C21 3.57454 20.7695 3.02949 20.3593 2.62763C19.9491 2.22576 19.3927 2 18.8125 2ZM7.30397 18.4205C7.00383 18.4525 6.70096 18.3925 6.43714 18.2487C6.17332 18.1049 5.96156 17.8844 5.83108 17.6177C5.7006 17.351 5.65784 17.0512 5.70869 16.7597C5.75955 16.4682 5.90151 16.1993 6.11499 15.9902C6.32848 15.7811 6.60295 15.642 6.90055 15.5922C7.19814 15.5424 7.50418 15.5843 7.77644 15.7121C8.0487 15.8399 8.27376 16.0473 8.42055 16.3058C8.56734 16.5642 8.62863 16.8609 8.59596 17.1549C8.56001 17.4785 8.41234 17.7803 8.17739 18.0105C7.94244 18.2407 7.63429 18.3853 7.30397 18.4205ZM11.3385 13.4286H5.6875C5.49411 13.4286 5.30865 13.3533 5.1719 13.2194C5.03516 13.0854 4.95833 12.9037 4.95833 12.7143V7C4.95833 6.81056 5.03516 6.62888 5.1719 6.49492C5.30865 6.36097 5.49411 6.28571 5.6875 6.28571H11.3385C11.3869 6.28571 11.4333 6.30453 11.4674 6.33802C11.5016 6.37151 11.5208 6.41693 11.5208 6.46429V13.25C11.5208 13.2974 11.5016 13.3428 11.4674 13.3763C11.4333 13.4098 11.3869 13.4286 11.3385 13.4286ZM12.25 4.85714H5.70846C5.31654 4.85714 4.9793 4.5625 4.95924 4.17902C4.95424 4.08229 4.96937 3.98558 5.00371 3.89476C5.03804 3.80395 5.09088 3.72092 5.159 3.65072C5.22711 3.58053 5.30909 3.52464 5.39995 3.48645C5.4908 3.44826 5.58863 3.42857 5.6875 3.42857H18.7915C19.1835 3.42857 19.5207 3.72321 19.5408 4.1067C19.5458 4.20342 19.5306 4.30013 19.4963 4.39095C19.462 4.48177 19.4091 4.5648 19.341 4.63499C19.2729 4.70518 19.1909 4.76107 19.1001 4.79926C19.0092 4.83745 18.9114 4.85715 18.8125 4.85714H12.25ZM13.1615 6.28571H18.8125C19.0059 6.28571 19.1914 6.36097 19.3281 6.49492C19.4648 6.62888 19.5417 6.81056 19.5417 7V12.7143C19.5417 12.9037 19.4648 13.0854 19.3281 13.2194C19.1914 13.3533 19.0059 13.4286 18.8125 13.4286H13.1615C13.1131 13.4286 13.0667 13.4098 13.0326 13.3763C12.9984 13.3428 12.9792 13.2974 12.9792 13.25V6.46429C12.9792 6.41693 12.9984 6.37151 13.0326 6.33802C13.0667 6.30453 13.1131 6.28571 13.1615 6.28571ZM15.904 17.1549C15.8714 16.8609 15.9327 16.5642 16.0795 16.3058C16.2262 16.0473 16.4513 15.8399 16.7236 15.7121C16.9958 15.5843 17.3019 15.5424 17.5995 15.5922C17.897 15.642 18.1715 15.7811 18.385 15.9902C18.5985 16.1993 18.7405 16.4682 18.7913 16.7597C18.8422 17.0512 18.7994 17.351 18.6689 17.6177C18.5384 17.8844 18.3267 18.1049 18.0629 18.2487C17.799 18.3925 17.4962 18.4525 17.196 18.4205C16.8657 18.3853 16.5576 18.2407 16.3226 18.0105C16.0877 17.7803 15.94 17.4785 15.904 17.1549Z" fill="#019F67"/>
</svg>
