<svg width="21" height="20" viewBox="0 0 21 20" fill="none" xmlns="http://www.w3.org/2000/svg">
<path d="M15.5764 4.80469H5.00823C4.35971 4.80469 3.83398 5.32128 3.83398 5.95853V10.5739C3.83398 11.2112 4.35971 11.7278 5.00823 11.7278H15.5764C16.2249 11.7278 16.7507 11.2112 16.7507 10.5739V5.95853C16.7507 5.32128 16.2249 4.80469 15.5764 4.80469Z" stroke="#019F67" stroke-width="1.25" stroke-linecap="round" stroke-linejoin="round"/>
<path d="M15.5764 11.7344H5.00823C4.35971 11.7344 3.83398 12.251 3.83398 12.8882V15.1959C3.83398 15.8332 4.35971 16.3498 5.00823 16.3498H15.5764C16.2249 16.3498 16.7507 15.8332 16.7507 15.1959V12.8882C16.7507 12.251 16.2249 11.7344 15.5764 11.7344Z" stroke="#019F67" stroke-width="1.25" stroke-linecap="round" stroke-linejoin="round"/>
<path d="M15.5764 4.80769H5.00823C4.69707 4.80684 4.3989 4.685 4.17887 4.46879C3.95885 4.25259 3.83486 3.9596 3.83398 3.65385C3.83486 3.34809 3.95885 3.0551 4.17887 2.8389C4.3989 2.6227 4.69707 2.50086 5.00823 2.5H15.5764C15.8876 2.50086 16.1857 2.6227 16.4058 2.8389C16.6258 3.0551 16.7498 3.34809 16.7507 3.65385C16.7498 3.9596 16.6258 4.25259 16.4058 4.46879C16.1857 4.685 15.8876 4.80684 15.5764 4.80769ZM6.18247 16.3462V17.1394C6.18247 17.2351 6.14381 17.3268 6.07499 17.3944C6.00618 17.462 5.91284 17.5 5.81552 17.5H4.78806C4.69074 17.5 4.5974 17.462 4.52858 17.3944C4.45977 17.3268 4.42111 17.2351 4.42111 17.1394V16.3462H6.18247ZM16.1635 16.3462V17.1394C16.1635 17.2351 16.1249 17.3268 16.0561 17.3944C15.9872 17.462 15.8939 17.5 15.7966 17.5H14.7691C14.6718 17.5 14.5785 17.462 14.5096 17.3944C14.4408 17.3268 14.4022 17.2351 14.4022 17.1394V16.3462H16.1635Z" stroke="#019F67" stroke-width="1.25" stroke-linecap="round" stroke-linejoin="round"/>
<path d="M14.4016 14.6148C14.7258 14.6148 14.9887 14.3565 14.9887 14.0379C14.9887 13.7192 14.7258 13.4609 14.4016 13.4609C14.0773 13.4609 13.8145 13.7192 13.8145 14.0379C13.8145 14.3565 14.0773 14.6148 14.4016 14.6148Z" stroke="#019F67" stroke-width="1.25" stroke-linejoin="round"/>
<path d="M6.18282 14.6148C6.50708 14.6148 6.76995 14.3565 6.76995 14.0379C6.76995 13.7192 6.50708 13.4609 6.18282 13.4609C5.85857 13.4609 5.5957 13.7192 5.5957 14.0379C5.5957 14.3565 5.85857 14.6148 6.18282 14.6148Z" stroke="#019F67" stroke-width="1.25" stroke-linejoin="round"/>
<path d="M10.2923 4.8101V11.7332M3.83398 3.65625V14.0409M16.7507 3.65625V14.0409" stroke="#019F67" stroke-width="1.25" stroke-linecap="round" stroke-linejoin="round"/>
</svg>
