<svg width="25" height="24" viewBox="0 0 25 24" fill="none" xmlns="http://www.w3.org/2000/svg">
<path d="M19.25 5H5.75C4.92157 5 4.25 5.67157 4.25 6.5V12.5C4.25 13.3284 4.92157 14 5.75 14H19.25C20.0784 14 20.75 13.3284 20.75 12.5V6.5C20.75 5.67157 20.0784 5 19.25 5Z" stroke="#6B7280" stroke-width="1.25" stroke-linecap="round" stroke-linejoin="round"/>
<path d="M19.25 14H5.75C4.92157 14 4.25 14.6716 4.25 15.5V18.5C4.25 19.3284 4.92157 20 5.75 20H19.25C20.0784 20 20.75 19.3284 20.75 18.5V15.5C20.75 14.6716 20.0784 14 19.25 14Z" stroke="#6B7280" stroke-width="1.25" stroke-linecap="round" stroke-linejoin="round"/>
<path d="M19.25 5H5.75C5.35252 4.99889 4.97163 4.84049 4.69057 4.55943C4.40951 4.27837 4.25111 3.89748 4.25 3.5C4.25111 3.10252 4.40951 2.72163 4.69057 2.44057C4.97163 2.15951 5.35252 2.00111 5.75 2H19.25C19.6475 2.00111 20.0284 2.15951 20.3094 2.44057C20.5905 2.72163 20.7489 3.10252 20.75 3.5C20.7489 3.89748 20.5905 4.27837 20.3094 4.55943C20.0284 4.84049 19.6475 4.99889 19.25 5ZM7.25 20V21.0312C7.25 21.1556 7.20061 21.2748 7.11271 21.3627C7.0248 21.4506 6.90557 21.5 6.78125 21.5H5.46875C5.34443 21.5 5.2252 21.4506 5.13729 21.3627C5.04939 21.2748 5 21.1556 5 21.0312V20H7.25ZM20 20V21.0312C20 21.1556 19.9506 21.2748 19.8627 21.3627C19.7748 21.4506 19.6556 21.5 19.5312 21.5H18.2188C18.0944 21.5 17.9752 21.4506 17.8873 21.3627C17.7994 21.2748 17.75 21.1556 17.75 21.0312V20H20Z" stroke="#6B7280" stroke-width="1.25" stroke-linecap="round" stroke-linejoin="round"/>
<path d="M17.75 17.75C18.1642 17.75 18.5 17.4142 18.5 17C18.5 16.5858 18.1642 16.25 17.75 16.25C17.3358 16.25 17 16.5858 17 17C17 17.4142 17.3358 17.75 17.75 17.75Z" fill="#6B7280" stroke="#6B7280" stroke-width="1.25" stroke-linejoin="round"/>
<path d="M7.25 17.75C7.66421 17.75 8 17.4142 8 17C8 16.5858 7.66421 16.25 7.25 16.25C6.83579 16.25 6.5 16.5858 6.5 17C6.5 17.4142 6.83579 17.75 7.25 17.75Z" fill="#6B7280" stroke="#6B7280" stroke-width="1.25" stroke-linejoin="round"/>
<path d="M12.5 5V14M4.25 3.5V17M20.75 3.5V17" stroke="#6B7280" stroke-width="1.25" stroke-linecap="round" stroke-linejoin="round"/>
</svg>
