<svg width="40" height="40" viewBox="0 0 40 40" fill="none" xmlns="http://www.w3.org/2000/svg">
<circle cx="20" cy="20" r="20" fill="#F1FAF7"/>
<path d="M19.25 25.25V26C19.25 26.1989 19.171 26.3897 19.0303 26.5303C18.8897 26.671 18.6989 26.75 18.5 26.75H17V27.5C17 27.8978 16.842 28.2794 16.5607 28.5607C16.2794 28.842 15.8978 29 15.5 29H12.5C12.1022 29 11.7206 28.842 11.4393 28.5607C11.158 28.2794 11 27.8978 11 27.5V25.5605C11.0001 25.1627 11.1582 24.7812 11.4395 24.5L17.243 18.6957C16.8869 17.4872 16.9203 16.1972 17.3385 15.0087C17.7566 13.8202 18.5383 12.7935 19.5727 12.0741C20.6071 11.3547 21.8416 10.9793 23.1014 11.0009C24.3611 11.0225 25.5821 11.4402 26.5912 12.1946C27.6002 12.949 28.3462 14.002 28.7233 15.2042C29.1004 16.4063 29.0895 17.6967 28.6922 18.8923C28.2948 20.0879 27.5311 21.1281 26.5095 21.8654C25.4878 22.6027 24.2599 22.9997 23 23H21.5V24.5C21.5 24.6989 21.421 24.8897 21.2803 25.0303C21.1397 25.171 20.9489 25.25 20.75 25.25H19.25ZM24.5 17C24.8978 17 25.2794 16.842 25.5607 16.5607C25.842 16.2794 26 15.8978 26 15.5C26 15.1022 25.842 14.7206 25.5607 14.4393C25.2794 14.158 24.8978 14 24.5 14C24.1022 14 23.7206 14.158 23.4393 14.4393C23.158 14.7206 23 15.1022 23 15.5C23 15.8978 23.158 16.2794 23.4393 16.5607C23.7206 16.842 24.1022 17 24.5 17Z" fill="#019F67"/>
</svg>
