<svg width="25" height="24" viewBox="0 0 25 24" fill="none" xmlns="http://www.w3.org/2000/svg">
<path d="M9.86923 19.9039V17.1437C9.86921 16.4443 10.4513 15.876 11.1722 15.8716H13.8195C14.5437 15.8716 15.1308 16.4412 15.1308 17.1437V19.8959C15.1308 20.5026 15.6353 20.9956 16.2606 21H18.0667C18.9102 21.0021 19.7199 20.6785 20.3171 20.1006C20.9144 19.5228 21.25 18.7381 21.25 17.9198V10.0793C21.25 9.41825 20.948 8.79124 20.4253 8.36715L14.2896 3.60684C13.2171 2.77421 11.6852 2.80111 10.6444 3.67085L4.64067 8.36715C4.09331 8.77874 3.76617 9.40761 3.75 10.0793V17.9118C3.75 19.6173 5.17522 21 6.93332 21H8.69816C8.99924 21.0021 9.28874 20.8876 9.50241 20.6818C9.71608 20.476 9.83625 20.196 9.83624 19.9039H9.86923Z" fill="#019F67" stroke="#019F67" stroke-width="1.5"/>
</svg>
