<svg width="24" height="24" viewBox="0 0 24 24" fill="none" xmlns="http://www.w3.org/2000/svg">
<path d="M9.13165 19.8943V17.1342C9.13163 16.4322 9.71735 15.8617 10.443 15.857H13.1013C13.8304 15.857 14.4215 16.4288 14.4215 17.1342V17.1342V19.9028C14.4213 20.4989 14.9131 20.986 15.5291 21H17.3013C19.0679 21 20.5 19.6146 20.5 17.9056V17.9056V10.0541C20.4906 9.38174 20.1643 8.75041 19.6139 8.33973L13.5532 3.61677C12.4914 2.79441 10.982 2.79441 9.92025 3.61677L3.88608 8.3483C3.33366 8.75732 3.0068 9.3897 3 10.0626V17.9056C3 19.6146 4.43212 21 6.19873 21H7.97089C8.60217 21 9.11392 20.5049 9.11392 19.8943V19.8943" stroke="#6B7280" stroke-width="1.5" stroke-linecap="round" stroke-linejoin="round"/>
</svg>
