<svg width="13" height="13" viewBox="0 0 13 13" fill="none" xmlns="http://www.w3.org/2000/svg">
<path d="M6.42853 7.03288C6.72002 7.03288 6.95631 6.81911 6.95631 6.55541C6.95631 6.2917 6.72002 6.07793 6.42853 6.07793C6.13705 6.07793 5.90076 6.2917 5.90076 6.55541C5.90076 6.81911 6.13705 7.03288 6.42853 7.03288Z" fill="#ADA4A5" stroke="#ADA4A5" stroke-width="2" stroke-linecap="round" stroke-linejoin="round"/>
<path d="M6.42853 3.69052C6.72002 3.69052 6.95631 3.47675 6.95631 3.21304C6.95631 2.94934 6.72002 2.73557 6.42853 2.73557C6.13705 2.73557 5.90076 2.94934 5.90076 3.21304C5.90076 3.47675 6.13705 3.69052 6.42853 3.69052Z" fill="#ADA4A5" stroke="#ADA4A5" stroke-width="2" stroke-linecap="round" stroke-linejoin="round"/>
<path d="M6.42853 10.3752C6.72002 10.3752 6.95631 10.1615 6.95631 9.89775C6.95631 9.63405 6.72002 9.42027 6.42853 9.42027C6.13705 9.42027 5.90076 9.63405 5.90076 9.89775C5.90076 10.1615 6.13705 10.3752 6.42853 10.3752Z" fill="#ADA4A5" stroke="#ADA4A5" stroke-width="2" stroke-linecap="round" stroke-linejoin="round"/>
</svg>
