<svg width="20" height="20" viewBox="0 0 20 20" fill="none" xmlns="http://www.w3.org/2000/svg">
<path fill-rule="evenodd" clip-rule="evenodd" d="M7.6277 3.20258C9.25333 2.25046 11.2515 2.2671 12.8619 3.24617C14.4564 4.24519 15.4256 6.02813 15.4165 7.94608C15.3794 9.85145 14.3403 11.6425 13.0413 13.0271C12.2915 13.8298 11.4528 14.5396 10.5423 15.142C10.4485 15.1967 10.3458 15.2333 10.2392 15.25C10.1366 15.2456 10.0367 15.215 9.94848 15.1611C8.55835 14.2559 7.33879 13.1005 6.34846 11.7505C5.51978 10.6235 5.04898 9.26201 5 7.85081C4.99893 5.92918 6.00206 4.1547 7.6277 3.20258ZM8.56705 8.64607C8.8405 9.32561 9.48596 9.76887 10.202 9.76887C10.6712 9.77227 11.1221 9.58286 11.4544 9.24284C11.7867 8.90283 11.9728 8.44046 11.9711 7.95877C11.9736 7.22351 11.5442 6.55922 10.8833 6.27607C10.2225 5.99291 9.46056 6.14675 8.95332 6.66575C8.44609 7.18475 8.29359 7.96653 8.56705 8.64607Z" fill="#F53C3C"/>
<ellipse opacity="0.4" cx="10.2085" cy="16.75" rx="3.72024" ry="0.75" fill="#9CA3AF"/>
</svg>
