<svg width="20" height="20" viewBox="0 0 20 20" fill="none" xmlns="http://www.w3.org/2000/svg">
<path d="M9.99914 17.5027C9.59728 17.5027 9.45166 17.1796 9.45166 16.781L9.27148 7.15143C9.27148 6.75282 9.59725 6.42969 9.99911 6.42969C10.401 6.42969 10.7267 6.75282 10.7267 7.15143L10.5466 16.781C10.5466 17.1796 10.401 17.5027 9.99914 17.5027Z" fill="#D1D5DB"/>
<path d="M9.99911 6.42969C9.59725 6.42969 9.27148 6.75282 9.27148 7.15143L9.3241 9.9629C9.541 10.0126 9.76698 10.0389 9.99911 10.0389C10.2312 10.0389 10.4572 10.0126 10.6742 9.96293L10.7268 7.15146C10.7267 6.75285 10.401 6.42969 9.99911 6.42969Z" fill="#9CA3AF"/>
<path d="M9.99935 9.11271C11.8403 9.11271 13.3327 7.6324 13.3327 5.80635C13.3327 3.9803 11.8403 2.5 9.99935 2.5C8.1584 2.5 6.66602 3.9803 6.66602 5.80635C6.66602 7.6324 8.1584 9.11271 9.99935 9.11271Z" fill="#019F67"/>
<path d="M7.61212 5.08876C7.87598 5.26191 8.33044 5.04161 8.62719 4.59669C8.92394 4.15178 8.9506 3.65074 8.68674 3.47758C8.42288 3.30443 7.96842 3.52474 7.67167 3.96965C7.37492 4.41457 7.34826 4.91561 7.61212 5.08876Z" fill="#F1FAF7"/>
</svg>
